<?xml version="1.0" standalone="no"?>
<!DOCTYPE svg PUBLIC "-//W3C//DTD SVG 20010904//EN"
 "http://www.w3.org/TR/2001/REC-SVG-20010904/DTD/svg10.dtd">
<svg version="1.0" xmlns="http://www.w3.org/2000/svg"
 width="2048.000000pt" height="2048.000000pt" viewBox="0 0 2048.000000 2048.000000"
 preserveAspectRatio="xMidYMid meet">
<metadata>
Created by potrace 1.14, written by Peter Selinger 2001-2017
</metadata>
<g transform="translate(0.000000,2048.000000) scale(0.100000,-0.100000)"
fill="#000000" stroke="none">
<path d="M13135 17743 c-177 -22 -407 -100 -656 -222 -262 -128 -418 -239
-530 -379 -89 -111 -131 -204 -150 -336 -15 -111 21 -247 102 -380 28 -45 28
-48 8 -30 -76 69 -355 223 -504 277 -112 41 -377 116 -505 142 -205 43 -514
57 -760 35 -256 -23 -543 -87 -855 -192 -289 -96 -468 -170 -760 -313 -267
-131 -444 -233 -620 -357 -537 -377 -950 -932 -933 -1252 l3 -63 -110 50
c-457 206 -969 371 -1636 527 -1432 337 -2777 396 -3823 169 -240 -53 -398
-119 -526 -222 -128 -104 -183 -202 -185 -328 0 -42 -8 -70 -32 -115 -64 -121
-112 -295 -145 -519 -20 -138 -17 -633 5 -815 40 -325 110 -583 266 -977 209
-527 526 -1150 764 -1502 83 -121 142 -182 252 -259 44 -31 97 -71 119 -90 45
-40 130 -82 167 -82 15 0 46 -7 69 -15 58 -21 90 -19 117 7 17 16 23 18 23 6
0 -34 72 -274 116 -384 168 -428 436 -847 890 -1390 300 -360 504 -574 663
-695 68 -51 69 -53 56 -79 -19 -36 -42 -155 -54 -279 -30 -295 9 -1089 67
-1366 7 -37 5 -44 -36 -100 -93 -126 -137 -241 -172 -451 -37 -214 -18 -431
55 -634 15 -41 33 -111 41 -155 32 -178 120 -396 221 -548 63 -95 273 -346
354 -423 120 -114 311 -240 521 -345 102 -51 104 -53 137 -114 77 -144 175
-205 401 -247 137 -26 443 -31 575 -9 383 61 696 143 1275 333 487 160 776
282 1490 630 584 285 1181 616 1593 885 71 46 201 125 290 175 786 445 1492
940 2172 1523 182 156 354 308 420 372 19 19 20 18 41 -67 42 -167 141 -356
319 -609 146 -209 425 -536 568 -667 29 -26 79 -73 112 -104 243 -228 651
-543 1063 -821 264 -177 352 -232 360 -224 3 3 17 -2 30 -11 33 -22 146 -31
167 -14 8 7 15 19 15 28 0 8 8 24 18 35 14 16 17 38 17 123 l0 104 26 0 c15 0
60 17 100 38 66 33 78 44 110 97 20 33 48 93 64 133 33 84 34 77 -39 287 -24
71 -44 131 -43 132 1 1 52 -12 113 -27 169 -44 266 -54 454 -46 91 3 198 11
239 16 55 7 78 7 88 -2 8 -6 37 -49 65 -95 28 -46 56 -82 61 -80 12 4 11 97
-4 247 -23 247 -226 870 -416 1279 -24 52 -42 96 -40 98 3 2 98 -40 213 -93
115 -53 250 -112 299 -131 233 -89 456 -104 591 -38 100 49 202 191 239 332 9
33 15 101 15 163 0 128 -25 251 -110 549 -33 118 -79 286 -101 375 -22 89 -42
166 -44 172 -2 6 54 -8 123 -32 212 -70 494 -126 917 -179 116 -15 224 -33
240 -39 17 -7 64 -45 106 -85 42 -39 82 -71 88 -71 11 0 7 102 -10 247 -20
169 -265 770 -430 1055 -164 284 -495 668 -773 898 l-79 65 79 7 c98 8 478 86
647 133 159 43 302 98 483 186 155 74 204 110 235 173 43 86 43 136 -2 283
-19 62 -29 76 -108 153 -92 92 -237 200 -501 377 -329 220 -521 324 -654 354
-31 8 -56 16 -56 19 1 3 40 32 88 65 105 72 387 297 532 425 435 384 1020 977
1137 1151 31 47 33 92 4 122 -11 13 -19 26 -16 29 14 13 -20 69 -58 94 -23 15
-58 38 -77 50 -63 41 -303 152 -410 189 -116 40 -306 90 -474 126 -84 18 -103
25 -84 30 15 4 135 69 269 145 211 121 252 149 319 214 58 58 85 94 118 160
53 107 66 171 52 259 -40 248 -78 314 -210 367 -124 50 -246 53 -603 13 -97
-11 -197 -19 -220 -17 l-43 3 89 135 c130 198 209 333 313 535 150 291 230
510 268 734 21 126 20 204 -5 271 -23 62 -24 72 -14 116 6 27 3 33 -32 57 -89
61 -326 92 -653 84 -285 -8 -544 -42 -915 -123 -1081 -235 -1841 -609 -2369
-1166 -157 -166 -291 -333 -409 -510 -51 -75 -93 -136 -94 -134 -1 1 6 30 17
64 21 67 39 156 66 327 25 157 26 532 1 665 -53 281 -119 454 -246 648 -166
252 -479 488 -771 580 -128 41 -326 92 -395 102 -67 9 -246 11 -310 3z m370
-813 c68 -14 178 -51 226 -75 52 -27 204 -142 239 -181 57 -66 120 -213 152
-359 8 -39 13 -126 12 -245 -1 -168 -3 -194 -28 -285 -32 -121 -107 -276 -175
-366 -64 -84 -208 -221 -290 -276 -71 -48 -151 -69 -304 -83 -239 -21 -384 27
-540 178 -77 74 -127 146 -227 322 -97 171 -197 337 -219 364 -13 16 -8 15 29
-6 115 -66 336 -170 416 -197 205 -68 431 -91 578 -57 76 18 171 64 203 97 29
32 57 101 72 179 7 36 18 71 23 78 6 7 8 32 4 60 -4 35 -2 53 10 70 23 34 29
180 10 271 -21 99 -43 123 -111 120 -40 -2 -58 3 -88 24 -41 28 -80 28 -122 2
-40 -25 -151 -47 -235 -46 -162 0 -266 30 -435 126 -102 58 -103 60 -74 85 88
75 266 163 394 195 131 33 336 35 480 5z m5429 -86 c-108 -189 -308 -480 -517
-754 -251 -328 -846 -1019 -1291 -1500 -211 -228 -505 -504 -766 -720 -63 -53
-171 -142 -239 -199 -68 -57 -161 -128 -205 -159 -45 -31 -119 -84 -166 -118
-47 -34 -86 -61 -87 -61 -1 1 5 29 13 62 29 125 64 406 70 575 7 176 -7 332
-40 461 l-12 46 105 54 c262 134 866 481 1116 641 282 181 682 496 756 595 42
57 83 144 72 153 -5 3 -51 4 -103 0 -92 -5 -99 -7 -225 -71 -400 -202 -904
-569 -1510 -1098 l-229 -200 -28 52 c-16 29 -48 71 -71 95 -47 48 -146 102
-187 102 -15 0 -60 12 -101 26 -163 56 -348 14 -704 -162 -250 -123 -349 -198
-527 -399 -136 -152 -201 -260 -231 -381 -25 -99 -29 -151 -17 -231 28 -184
129 -382 275 -539 6 -6 34 -23 63 -37 70 -35 98 -25 125 48 60 158 188 389
274 495 128 159 305 309 427 364 l39 17 -7 -88 c-32 -410 -231 -802 -565
-1115 -161 -150 -311 -246 -426 -271 -256 -57 -560 -42 -763 37 -379 147 -653
345 -1173 852 -318 310 -431 401 -600 482 -47 23 -121 51 -165 63 -43 11 -122
32 -174 45 -162 43 -381 33 -565 -25 -236 -74 -346 -122 -748 -323 -367 -183
-531 -254 -740 -318 -318 -99 -555 -132 -932 -132 -266 0 -378 10 -489 43 -96
29 -227 91 -299 143 -202 143 -378 426 -394 633 -5 60 -1 85 20 155 68 218
236 468 479 716 359 366 1160 759 1943 952 224 56 421 91 665 119 236 27 612
23 790 -9 144 -25 323 -75 428 -119 88 -36 242 -136 332 -215 76 -66 107 -112
260 -376 126 -218 170 -285 246 -380 271 -337 342 -400 587 -525 239 -122 370
-157 577 -157 473 1 965 255 1241 642 56 78 69 87 69 46 1 -30 33 -69 55 -65
10 2 46 36 79 75 34 38 115 133 181 210 168 195 596 622 740 736 412 329 904
572 1518 749 311 90 758 189 1092 243 429 69 653 107 680 115 17 4 31 7 33 6
2 -2 -23 -47 -54 -101z m-219 -1581 c95 -23 403 -112 444 -129 71 -28 90 -112
51 -217 -21 -57 -35 -73 -305 -374 -197 -218 -205 -229 -205 -264 0 -15 -4
-30 -9 -33 -4 -3 -44 1 -86 9 -251 48 -543 85 -679 85 l-99 0 24 29 c13 16 78
92 144 168 66 76 136 158 156 182 l35 44 100 -12 c268 -32 292 -33 397 -10 53
12 97 25 97 29 0 4 -30 16 -67 25 -49 13 -124 20 -265 24 -108 3 -199 8 -202
11 -2 3 45 75 105 160 61 85 131 188 157 228 l46 72 50 -6 c28 -3 78 -13 111
-21z m-15068 -347 c540 -34 824 -62 1888 -186 418 -49 830 -96 915 -104 169
-17 486 -46 509 -46 8 0 -20 -35 -62 -77 -100 -102 -149 -169 -203 -278 -130
-264 -122 -555 25 -860 71 -147 172 -281 351 -468 102 -107 195 -170 395 -270
236 -118 362 -153 645 -182 284 -30 697 -7 906 49 l51 13 -13 -36 c-29 -81
-11 -180 58 -314 49 -94 104 -169 252 -341 181 -211 301 -305 555 -435 388
-198 714 -249 1086 -171 442 92 771 376 865 747 11 43 28 112 39 153 19 72 34
166 47 295 3 33 7 61 8 62 1 2 44 -33 94 -77 270 -234 466 -367 751 -510 l145
-72 -55 -31 c-223 -125 -317 -208 -374 -328 -59 -125 -70 -184 -69 -359 1
-190 25 -294 109 -467 79 -165 129 -234 383 -529 95 -111 274 -249 421 -324
63 -33 63 -33 39 -46 -39 -20 -53 -67 -52 -169 1 -106 20 -177 76 -289 l41
-81 -7 -105 c-14 -210 -54 -418 -123 -625 -75 -229 -152 -359 -310 -525 -90
-95 -597 -540 -967 -849 -1315 -1100 -2621 -1873 -4291 -2541 -336 -134 -861
-306 -1175 -385 -156 -39 -212 -49 -370 -69 -262 -33 -343 -40 -495 -40 -138
-1 -169 2 -230 21 -84 27 -251 129 -343 209 -60 54 -122 103 -343 274 -82 63
-85 67 -118 150 -19 47 -81 195 -139 330 -130 306 -190 486 -237 710 -20 96
-57 267 -82 380 -33 142 -47 226 -46 273 0 42 -3 64 -8 55 -14 -21 -11 40 11
258 21 210 66 590 76 636 5 24 14 14 94 -105 151 -224 601 -776 805 -986 66
-68 155 -149 197 -182 86 -64 250 -150 335 -175 69 -20 89 -12 131 49 30 45
30 47 21 121 l-9 75 65 130 c105 211 599 1060 661 1138 l21 27 17 -31 c59
-114 405 -531 592 -713 149 -144 234 -211 354 -275 140 -75 188 -81 250 -29
41 35 63 80 93 194 51 192 60 361 43 810 -4 113 -4 215 1 226 7 20 14 15 82
-60 76 -83 234 -254 375 -406 232 -248 349 -342 561 -446 201 -99 257 -106
332 -41 91 80 180 371 211 693 l7 72 120 -115 c252 -242 343 -314 487 -383 92
-45 115 -48 173 -21 70 31 146 132 292 386 98 168 252 511 278 618 4 15 11 30
16 33 5 3 42 -21 82 -54 149 -121 243 -185 371 -248 104 -52 144 -67 191 -71
164 -14 343 126 474 371 24 46 28 61 19 68 -10 6 -9 8 2 8 10 0 11 3 4 8 -10
6 -13 140 -4 150 1 1 3 10 4 20 10 95 20 141 67 312 5 19 12 45 14 58 3 12 8
34 11 50 11 52 12 202 2 202 -6 0 -5 6 2 15 7 9 8 15 2 15 -5 0 -13 7 -16 16
-4 10 -2 13 6 8 6 -4 8 -3 4 4 -3 5 0 13 6 16 7 3 3 3 -9 0 -19 -4 -23 -1 -23
18 0 13 -4 28 -9 33 -5 6 -11 21 -13 35 -1 14 -6 27 -9 30 -4 3 -9 16 -10 30
-2 14 -6 27 -9 30 -3 3 -11 28 -18 55 -7 28 -30 86 -52 130 -38 75 -47 100
-55 150 -2 11 -4 20 -5 20 -1 0 -3 11 -6 25 -10 61 -42 135 -180 416 -155 316
-202 397 -279 482 -53 59 -86 79 -136 85 -19 2 -44 9 -56 15 -30 16 -72 15
-107 -3 -15 -8 -33 -15 -38 -15 -8 0 -63 -24 -156 -67 -19 -9 -41 -31 -51 -52
-34 -67 -90 -387 -120 -690 -12 -112 -22 -206 -24 -208 -8 -8 -550 715 -582
776 -8 17 -20 31 -25 31 -6 0 -10 6 -10 14 0 17 -133 171 -157 181 -75 31
-202 46 -226 27 -18 -14 -104 -37 -252 -67 -71 -14 -154 -33 -184 -41 l-54
-15 102 -103 102 -102 -20 -230 c-12 -126 -24 -251 -27 -278 l-6 -48 -77 83
c-257 279 -448 550 -748 1059 -102 172 -187 305 -204 315 -6 5 -31 7 -55 7
-31 -2 -53 5 -80 23 -40 27 -75 27 -119 0 -11 -7 -33 -16 -50 -19 -26 -6 -99
-38 -215 -95 -47 -23 -65 -58 -99 -197 -62 -248 -97 -508 -106 -794 -6 -213
-14 -353 -20 -359 -7 -7 -136 101 -500 419 -192 168 -402 348 -465 400 -63 51
-164 137 -225 190 -147 128 -163 140 -195 140 l-27 0 -7 108 c-10 157 -25 282
-36 302 -6 12 -27 21 -54 25 -37 6 -55 2 -103 -21 -61 -30 -70 -43 -103 -138
-51 -146 -72 -394 -51 -611 21 -219 139 -919 194 -1153 24 -103 24 -103 3 -85
-179 156 -409 384 -536 533 -318 371 -721 999 -982 1530 -135 275 -146 290
-198 290 -22 0 -54 9 -72 20 -34 20 -66 18 -103 -6 -11 -8 -27 -14 -36 -14 -9
0 -43 -13 -75 -29 -33 -16 -69 -32 -81 -35 -125 -38 -225 -495 -208 -946 12
-320 62 -938 101 -1240 16 -126 46 -313 68 -417 8 -37 13 -69 12 -71 -2 -1
-106 123 -233 275 -651 787 -776 959 -1101 1508 -110 186 -150 239 -219 287
-75 51 -79 59 -98 164 -25 141 -60 222 -157 369 -269 407 -610 1107 -772 1585
-116 344 -246 791 -320 1100 -66 278 -83 371 -121 651 l-5 36 72 7 c39 4 153
23 252 42 358 68 725 113 1101 134 224 12 992 4 1282 -14z m14203 -722 c110
-38 340 -132 645 -264 105 -45 287 -123 405 -172 118 -49 280 -119 359 -156
l144 -66 -103 -99 c-234 -224 -638 -556 -1050 -863 -251 -188 -508 -395 -605
-491 l-49 -48 -66 75 c-319 361 -662 601 -1041 727 l-117 39 142 27 c281 54
636 138 1089 258 254 67 536 141 627 165 90 23 166 48 168 54 4 12 -135 8
-418 -11 -519 -35 -1077 -137 -1465 -269 -49 -16 -85 -26 -80 -21 6 4 80 61
165 126 313 239 463 372 860 768 140 140 262 255 272 256 9 0 62 -15 118 -35z
m-2095 -1731 c381 -191 598 -319 850 -502 255 -185 586 -457 780 -642 33 -32
74 -70 90 -85 129 -116 281 -274 262 -270 -12 3 -71 8 -132 11 -192 11 -868
64 -1210 96 -328 30 -545 39 -765 29 l-114 -5 -13 75 c-20 117 -49 202 -94
270 -70 103 -196 188 -315 209 -32 6 -83 20 -113 31 -78 30 -180 29 -251 -2
-30 -14 -68 -28 -85 -32 -16 -4 -94 -38 -171 -76 -156 -76 -221 -127 -305
-238 -90 -119 -79 -159 97 -354 14 -15 53 -41 87 -57 53 -25 81 -31 197 -40
170 -14 210 -21 210 -35 0 -27 -74 -163 -127 -233 -31 -42 -93 -106 -137 -144
-74 -63 -85 -69 -150 -80 -92 -16 -388 -16 -494 0 -122 18 -201 44 -349 117
-328 160 -552 407 -659 724 -40 119 -41 230 -2 313 32 69 109 185 143 217 l24
23 83 -31 c419 -159 814 -170 1201 -35 56 19 138 53 182 75 l80 40 75 -11
c126 -19 384 -86 697 -180 523 -157 1120 -324 1253 -350 30 -5 123 -20 205
-31 83 -12 158 -23 168 -26 35 -11 15 17 -25 35 -24 10 -106 48 -183 84 -141
65 -816 299 -1175 406 -313 93 -531 131 -768 132 -110 0 -133 3 -118 12 255
162 492 396 658 648 l70 106 66 -45 c37 -24 162 -92 277 -149z m2645 -767 c41
-34 219 -183 395 -332 389 -330 501 -443 468 -474 -4 -5 -69 -29 -143 -55
-179 -62 -282 -104 -543 -219 -119 -53 -251 -110 -292 -126 -104 -41 -186 -84
-225 -116 -30 -25 -34 -27 -55 -13 -13 8 -94 62 -181 120 -88 59 -197 127
-244 153 l-85 46 90 0 c275 1 566 19 619 40 17 6 28 21 35 47 16 55 14 68 -23
178 -19 55 -33 101 -31 103 2 2 16 -3 32 -11 59 -30 254 -87 391 -113 134 -26
144 -26 179 -11 21 8 46 18 56 21 25 8 22 17 -23 62 -34 35 -57 46 -161 78
-145 46 -315 81 -431 91 -47 4 -90 10 -95 14 -6 3 -40 65 -77 138 -37 73 -102
190 -145 261 l-77 129 85 37 c47 20 122 56 166 80 l80 44 80 -56 c44 -30 114
-83 155 -116z m-3810 -232 c0 -8 -19 -13 -24 -6 -3 5 1 9 9 9 8 0 15 -2 15 -3z
m1060 -681 c204 -239 815 -1235 1076 -1753 120 -238 257 -544 244 -548 -19 -7
-515 97 -765 159 -452 113 -1178 348 -1510 489 -55 23 -201 91 -325 152 -239
117 -372 168 -439 168 -32 0 -41 4 -41 18 0 9 -3 33 -6 53 l-6 36 88 -19 c131
-28 345 -34 469 -14 223 37 424 132 623 294 l40 32 173 -168 c96 -92 217 -199
269 -238 105 -79 403 -285 436 -302 41 -22 215 -83 224 -80 22 7 -137 182
-288 317 -283 252 -375 318 -608 438 -82 42 -151 78 -153 79 -2 2 8 18 23 36
141 174 206 301 262 513 42 161 52 205 65 296 l12 86 65 -19 c36 -10 69 -21
72 -25z m480 -73 c167 -15 609 -30 877 -30 l231 0 54 -42 c94 -73 219 -188
384 -353 482 -481 778 -881 1352 -1827 l149 -247 -136 48 c-269 95 -418 158
-736 309 -104 50 -304 138 -443 195 -139 58 -316 134 -393 169 l-141 63 -54
106 c-157 313 -467 753 -772 1096 -77 87 -75 90 27 38 54 -27 76 -31 86 -15
11 19 -12 36 -188 141 -104 63 -196 126 -232 160 -79 75 -143 129 -199 170
-25 18 -46 34 -46 37 0 2 15 2 33 -2 17 -3 84 -10 147 -16z m-11769 -285 c326
-548 824 -1160 1174 -1440 152 -122 332 -237 515 -329 283 -143 339 -139 375
30 20 93 19 137 -5 225 -60 217 -81 312 -99 446 -33 240 -54 540 -66 943 -3
107 -8 206 -11 220 -3 14 23 -18 59 -71 70 -106 355 -484 511 -679 261 -327
488 -572 632 -682 66 -51 220 -138 297 -169 82 -33 165 -19 199 33 27 41 59
163 88 342 29 173 86 448 136 654 l27 112 22 -39 c87 -153 292 -432 500 -681
264 -317 510 -531 744 -648 131 -66 149 -70 202 -48 70 29 104 83 142 226 49
181 66 371 67 773 0 64 3 117 8 117 4 0 20 -19 37 -43 71 -100 331 -427 454
-572 152 -178 242 -258 351 -316 107 -56 135 -64 180 -50 78 23 129 103 175
271 23 87 34 157 80 510 16 122 54 300 64 300 3 0 50 -87 105 -193 141 -273
243 -463 286 -528 50 -75 183 -232 215 -253 l26 -17 -39 -47 c-62 -75 -110
-157 -174 -296 -58 -129 -134 -262 -163 -286 -12 -10 -37 3 -142 76 -157 107
-242 172 -310 236 -46 43 -71 54 -110 49 -6 -1 -26 8 -45 19 -27 15 -40 18
-64 10 -125 -39 -279 -113 -294 -140 -6 -11 -48 -133 -94 -272 -85 -259 -152
-423 -258 -631 l-60 -117 -41 32 c-23 17 -143 133 -267 257 -124 124 -247 243
-273 265 -71 58 -228 99 -260 67 -6 -6 -18 -11 -26 -11 -8 0 -44 -14 -80 -30
-182 -84 -175 -67 -181 -422 -4 -197 -8 -280 -17 -289 -9 -9 -28 -1 -84 40
-99 72 -537 422 -684 546 -165 139 -174 145 -206 145 -15 0 -31 5 -34 10 -9
15 -58 12 -101 -6 -130 -54 -141 -61 -158 -106 -22 -60 -42 -223 -71 -567 -14
-163 -27 -319 -31 -348 l-6 -52 -88 70 c-260 205 -572 532 -705 737 -26 40
-56 77 -68 81 -85 32 -124 38 -155 22 -9 -5 -46 -21 -82 -37 -96 -41 -126 -68
-187 -160 -195 -300 -428 -942 -478 -1320 -10 -71 -20 -137 -24 -148 -10 -28
-108 82 -291 325 -178 237 -235 306 -460 559 -302 338 -415 493 -536 739 l-72
145 16 50 c12 37 16 89 16 186 -1 132 -2 139 -53 315 -121 421 -146 679 -150
1566 -1 391 2 461 21 428 4 -8 40 -68 79 -134z m9641 -1612 c111 -117 283
-371 432 -638 293 -524 733 -1564 975 -2307 66 -203 173 -586 168 -601 -4 -12
-137 89 -302 227 -446 374 -757 711 -1030 1116 -99 147 -149 233 -301 511 -67
125 -154 276 -191 336 l-69 109 33 54 c17 30 51 98 74 150 23 52 44 98 48 102
3 4 42 -63 86 -150 99 -195 176 -324 370 -617 142 -215 324 -444 332 -418 9
27 -98 267 -213 477 -210 381 -230 410 -458 655 -53 57 -96 109 -96 116 0 6
15 67 34 136 19 68 42 174 51 234 22 138 24 380 3 488 -8 42 -11 77 -8 77 4 0
32 -26 62 -57z m404 -144 c201 -76 386 -133 669 -208 230 -61 601 -149 785
-187 74 -15 143 -34 153 -42 32 -28 118 -172 191 -321 77 -158 134 -293 300
-711 58 -146 169 -409 246 -585 78 -176 165 -374 192 -440 75 -179 188 -459
185 -461 -1 -1 -128 36 -282 82 -254 77 -595 160 -892 217 l-112 22 -36 105
c-166 480 -513 1192 -808 1654 -225 353 -487 679 -678 843 -46 39 -95 81 -109
93 -29 26 -49 32 196 -61z m3254 -136 c91 -44 193 -91 228 -104 38 -15 62 -30
62 -39 0 -8 9 -109 19 -225 56 -601 27 -905 -97 -1037 -45 -49 -118 -41 -635
66 -265 55 -327 62 -420 47 l-48 -8 -23 41 c-267 480 -420 710 -580 874 -63
65 -76 82 -56 78 44 -10 440 -73 576 -92 127 -17 130 -18 112 -36 -26 -26 -22
-45 16 -81 18 -18 62 -70 97 -117 35 -47 104 -127 154 -179 86 -89 302 -278
343 -300 38 -20 152 -59 156 -52 2 3 -10 36 -27 73 -22 47 -68 108 -151 203
-128 145 -240 245 -376 334 -115 76 -186 131 -169 131 33 0 321 -43 407 -61
172 -35 249 -21 266 48 4 14 16 38 27 51 32 42 21 165 -35 372 -29 108 -28
103 -18 98 4 -2 81 -40 172 -85z m-1578 -2784 c168 -61 158 -48 132 -175 -20
-97 -31 -116 -97 -158 -29 -19 -59 -41 -66 -50 -18 -21 -31 -20 -31 2 0 18
-93 393 -106 426 -6 15 -4 18 7 14 8 -3 80 -30 161 -59z m-11248 -1223 c15
-13 24 -26 19 -29 -5 -4 -27 12 -49 35 -40 41 -23 38 30 -6z"/>
<path d="M10320 15694 c-439 -30 -815 -116 -1206 -277 -397 -163 -848 -453
-1063 -683 -112 -119 -245 -312 -325 -471 -32 -65 -55 -183 -35 -183 4 0 24 9
43 21 38 22 41 22 101 -27 153 -123 382 -181 745 -188 402 -9 710 33 1291 174
518 127 696 161 921 180 288 24 621 -41 910 -178 211 -100 400 -226 773 -516
330 -258 532 -406 624 -460 172 -101 366 -163 546 -173 90 -5 105 -3 143 16
46 23 47 31 17 91 -18 35 -44 56 -170 141 -205 138 -524 390 -975 769 -379
319 -618 477 -879 580 -128 51 -333 104 -466 121 -151 19 -491 18 -479 -2 2
-4 -13 -10 -34 -13 -20 -4 -45 -10 -56 -13 -14 -4 -16 -2 -10 8 6 11 5 12 -8
2 -8 -7 -18 -10 -21 -6 -4 3 -7 1 -7 -6 0 -8 -6 -9 -17 -3 -65 32 -349 -28
-871 -183 -456 -136 -665 -187 -967 -234 -234 -36 -357 -45 -600 -45 -203 1
-251 4 -314 20 l-74 19 85 95 c190 214 395 368 793 598 39 22 79 49 89 61 11
12 23 21 29 21 5 0 22 9 38 21 16 11 35 22 42 23 7 1 21 7 33 13 11 7 49 22
85 34 35 12 74 29 87 37 12 8 22 11 22 7 0 -5 10 0 22 11 13 12 18 13 13 4 -6
-11 -3 -10 11 2 11 10 29 19 40 22 33 6 84 30 84 39 0 4 4 6 10 2 5 -3 17 -1
27 5 22 12 66 28 74 26 3 0 12 4 20 11 8 6 26 14 41 17 14 2 34 9 44 15 21 11
194 69 222 74 9 2 26 8 37 14 11 6 25 11 30 12 15 0 107 22 125 28 17 6 27 8
122 17 37 3 87 2 112 -4 34 -7 74 -6 153 5 269 36 567 46 774 24 121 -12 291
-43 367 -66 40 -13 55 -14 64 -5 18 18 1 31 -162 127 -218 129 -356 178 -580
209 -107 15 -391 27 -490 20z"/>
<path d="M11109 15188 c-42 -16 -69 -49 -69 -85 0 -28 9 -44 51 -84 106 -103
139 -97 139 24 0 91 -21 139 -66 148 -17 3 -41 2 -55 -3z"/>
<path d="M10597 15155 c-52 -36 -50 -65 11 -126 47 -47 88 -67 117 -55 25 9
24 129 -1 178 -12 23 -21 28 -52 28 -24 0 -51 -9 -75 -25z"/>
<path d="M10064 15071 c-58 -26 -84 -58 -84 -100 0 -30 9 -43 63 -93 55 -51
104 -78 144 -78 36 0 52 134 26 218 -12 41 -21 53 -39 57 -13 3 -34 7 -46 10
-13 2 -41 -4 -64 -14z"/>
<path d="M11558 15057 c-45 -27 -63 -57 -54 -92 9 -35 109 -135 135 -135 33 0
51 38 51 108 0 76 -21 132 -49 132 -11 0 -25 2 -33 5 -7 2 -30 -6 -50 -18z"/>
<path d="M9505 14876 c-44 -19 -85 -65 -85 -94 0 -32 94 -126 147 -148 77 -33
99 0 91 134 -5 93 -24 122 -81 122 -23 -1 -55 -7 -72 -14z"/>
<path d="M8983 14710 c-46 -28 -45 -66 2 -109 39 -35 78 -53 99 -45 8 3 16 23
18 50 8 105 -44 150 -119 104z"/>
<path d="M8515 14554 c-82 -43 -87 -82 -17 -149 26 -25 64 -51 85 -57 56 -17
69 1 70 95 2 95 -16 127 -71 127 -20 0 -50 -7 -67 -16z"/>
<path d="M3119 14386 c-2 -2 -141 -6 -309 -10 -663 -15 -939 -29 -1060 -57
-124 -29 -200 -61 -249 -105 -55 -50 -72 -84 -96 -203 -14 -71 -15 -96 -6
-159 17 -113 63 -238 160 -437 110 -223 231 -425 511 -850 265 -404 480 -754
480 -783 0 -5 -9 -17 -21 -28 -48 -44 -44 -72 43 -303 174 -463 407 -889 745
-1363 58 -81 109 -146 113 -143 5 3 -16 55 -46 116 -190 383 -382 808 -479
1054 -98 250 -198 576 -182 591 12 13 459 63 752 85 165 12 1286 25 1338 15
32 -6 37 -11 42 -44 44 -277 221 -737 408 -1057 47 -82 260 -413 279 -434 27
-31 17 13 -32 146 -83 221 -157 445 -210 631 -95 332 -130 513 -130 670 l0 74
113 -7 c334 -20 818 -68 1146 -113 l124 -17 24 -89 c46 -176 147 -382 332
-680 131 -211 244 -337 424 -475 26 -20 31 -7 12 29 -36 69 -205 504 -259 665
-60 176 -109 355 -121 438 -7 47 -7 48 16 43 13 -3 49 -10 79 -15 30 -6 210
-40 400 -76 430 -81 571 -102 780 -116 194 -13 223 -8 298 52 53 41 72 83 58
126 -9 29 -255 143 -426 198 -96 31 -451 296 -780 583 -161 141 -1141 1119
-1468 1465 -183 194 -189 200 -272 238 -47 22 -102 48 -122 59 -32 17 -68 26
-68 17 0 -39 26 -181 39 -217 50 -131 358 -604 526 -805 301 -363 915 -856
1422 -1142 113 -63 123 -62 -147 -18 -352 57 -821 109 -1245 137 -211 14
-1006 17 -1265 5 -716 -32 -1270 -111 -1870 -263 l-215 -55 -18 26 c-14 19
-28 25 -55 25 l-37 1 -58 124 c-154 330 -348 806 -501 1226 -125 346 -172 509
-191 666 -6 51 -5 53 21 59 25 6 782 -3 864 -11 64 -6 861 -17 1144 -17 153 1
351 6 440 12 222 15 667 59 706 70 35 10 247 128 256 142 3 5 -1 17 -9 26 -8
9 -22 33 -30 53 -20 49 -53 62 -242 98 -285 54 -650 98 -1014 121 -145 9 -853
14 -862 6z"/>
<path d="M2380 13700 c-8 -5 -25 -7 -37 -4 -18 5 -36 -8 -93 -67 -81 -85 -91
-108 -65 -156 15 -27 40 -44 117 -83 83 -42 107 -49 153 -49 32 1 59 6 65 14
20 24 11 144 -12 172 -5 6 -8 17 -7 25 5 24 -12 71 -42 115 -30 43 -50 51 -79
33z"/>
<path d="M2867 13670 c-62 -39 -62 -62 0 -123 47 -46 104 -70 123 -51 5 5 11
35 14 67 7 70 -12 127 -43 127 -11 0 -25 2 -33 5 -7 3 -35 -8 -61 -25z"/>
<path d="M4008 13682 c-38 -23 -36 -55 5 -86 32 -25 75 -35 78 -18 7 33 6 79
-2 98 -10 29 -42 31 -81 6z"/>
<path d="M3493 13662 c-56 -35 -57 -65 -5 -114 57 -55 111 -75 128 -47 13 22
13 123 -1 156 -12 28 -19 33 -47 33 -19 0 -51 -12 -75 -28z"/>
<path d="M5305 13538 c-11 -6 -22 -14 -25 -17 -3 -4 -17 -14 -32 -24 -47 -29
-39 -70 25 -132 65 -64 119 -85 148 -59 34 31 24 212 -14 236 -18 11 -79 9
-102 -4z"/>
<path d="M4805 13452 c-16 -10 -51 -32 -77 -50 -54 -37 -61 -67 -30 -113 30
-46 125 -119 172 -133 41 -13 47 -12 65 5 28 27 34 193 9 257 -15 40 -19 44
-46 40 -16 -3 -31 -1 -34 4 -8 12 -25 9 -59 -10z"/>
<path d="M4223 13259 c-71 -46 -78 -67 -44 -123 26 -40 109 -105 155 -121 32
-11 39 -11 59 5 19 16 22 29 25 112 2 74 -1 100 -15 128 -17 32 -22 35 -68 37
-43 2 -58 -4 -112 -38z"/>
<path d="M3703 13169 c-58 -38 -63 -44 -63 -77 0 -31 8 -44 58 -91 83 -78 159
-104 182 -62 23 45 14 230 -13 258 -4 3 -28 7 -54 9 -42 3 -56 -2 -110 -37z"/>
<path d="M3069 13111 c-58 -35 -64 -42 -67 -75 -3 -33 2 -41 54 -91 35 -33 75
-60 103 -70 43 -14 46 -14 64 4 35 35 30 245 -7 256 -60 18 -83 14 -147 -24z"/>
<path d="M2570 12973 c-28 -3 -47 -17 -92 -66 -89 -94 -76 -134 58 -198 78
-37 146 -44 170 -17 41 44 -35 292 -87 286 -8 0 -30 -3 -49 -5z"/>
<path d="M5524 12759 c-4 -7 -19 -8 -38 -5 -29 6 -36 1 -113 -81 -68 -72 -83
-93 -83 -119 0 -46 41 -84 147 -138 73 -36 105 -46 156 -50 91 -7 102 6 93
111 -4 43 -11 82 -17 88 -5 5 -9 21 -9 35 0 29 -31 99 -63 142 -21 29 -60 38
-73 17z"/>
<path d="M4886 12641 c-3 -4 -16 -6 -28 -4 -18 3 -38 -10 -85 -58 -35 -34 -65
-70 -68 -80 -3 -9 1 -33 8 -52 30 -71 242 -149 292 -107 14 12 16 25 11 79 -4
35 -10 69 -14 75 -4 6 -7 18 -8 26 -1 23 -22 69 -45 101 -20 28 -52 38 -63 20z"/>
<path d="M6162 12606 c-47 -12 -72 -37 -72 -70 0 -39 70 -160 106 -184 63 -41
75 -31 133 111 6 15 11 50 11 78 0 39 -4 51 -17 55 -10 3 -26 10 -35 15 -23
12 -72 10 -126 -5z"/>
<path d="M4230 12477 c-8 -7 -26 -24 -38 -39 -20 -22 -22 -30 -13 -47 16 -29
86 -63 124 -59 31 3 32 4 31 49 -3 65 -27 109 -62 109 -15 0 -34 -6 -42 -13z"/>
<path d="M3628 12350 c-74 -73 -63 -108 49 -164 56 -28 111 -34 131 -14 24 24
11 112 -28 188 -16 31 -22 35 -61 36 -40 1 -49 -3 -91 -46z"/>
<path d="M2926 12331 c-3 -5 -16 -7 -28 -3 -17 4 -33 -8 -80 -58 -32 -35 -58
-71 -58 -81 0 -31 42 -70 112 -104 84 -42 146 -47 166 -14 13 21 8 103 -8 124
-4 6 -10 25 -14 44 -11 61 -72 122 -90 92z"/>
<path d="M8594 12127 c-7 -19 50 -221 91 -325 50 -123 100 -208 234 -393 12
-17 9 -23 -30 -58 l-43 -39 2 -92 c3 -173 45 -359 129 -570 45 -114 59 -140
73 -140 4 0 10 60 13 133 6 135 32 269 63 330 9 17 38 52 64 77 26 25 49 51
51 59 4 11 15 8 48 -13 24 -15 102 -57 174 -92 l131 -65 85 3 86 3 -3 39 c-2
22 -9 51 -17 65 -20 40 -167 180 -480 456 -204 179 -529 497 -598 583 -42 52
-63 64 -73 39z"/>
<path d="M12159 11442 c-123 -88 -376 -208 -596 -283 -214 -72 -396 -105 -753
-134 -231 -18 -245 -21 -330 -47 -108 -33 -176 -74 -210 -128 -39 -60 -38 -81
6 -130 68 -75 202 -102 469 -94 428 13 772 107 1047 286 179 117 283 230 379
413 29 55 58 107 66 116 13 15 9 50 -6 48 -3 0 -35 -21 -72 -47z"/>
<path d="M12030 10392 c0 -5 27 -74 61 -153 108 -255 184 -517 228 -781 62
-372 64 -663 5 -1007 -32 -191 -31 -223 6 -299 55 -110 130 -151 179 -98 33
35 78 155 101 266 39 193 36 461 -11 749 -58 363 -217 799 -398 1090 -55 89
-171 247 -171 233z"/>
<path d="M11885 7531 c-75 -53 -309 -184 -515 -287 l-204 -102 -31 83 c-37 97
-83 172 -132 216 l-36 31 -23 -38 c-49 -80 -37 -214 27 -318 16 -27 28 -50 27
-52 -23 -23 -1055 -454 -1086 -454 -13 0 -104 144 -155 245 -63 123 -82 151
-91 130 -24 -64 10 -260 63 -370 22 -43 27 -62 18 -67 -15 -10 -405 -151 -659
-239 l-196 -68 -37 45 c-22 26 -89 79 -165 129 -133 88 -208 158 -421 394 -52
58 -100 106 -107 109 -20 6 -34 -49 -27 -108 16 -126 88 -293 190 -435 69 -97
112 -143 187 -200 l57 -42 -232 -71 c-322 -99 -522 -155 -732 -207 -196 -48
-451 -105 -472 -105 -7 0 -23 17 -36 38 -14 20 -66 82 -116 137 -51 55 -114
132 -140 170 -58 84 -145 248 -196 367 -38 89 -65 125 -86 113 -23 -15 -51
-98 -56 -168 -12 -167 99 -505 222 -678 l33 -46 -162 -16 c-537 -54 -887 -43
-1493 49 -26 4 -51 25 -117 99 -168 189 -277 354 -395 600 -37 77 -77 151 -89
165 l-21 25 -15 -37 c-45 -106 18 -376 150 -643 67 -138 178 -296 231 -330 19
-13 49 -55 84 -120 72 -135 209 -339 308 -457 169 -201 461 -446 632 -530 48
-24 88 -49 88 -55 1 -7 12 -20 27 -29 22 -15 35 -16 127 -5 130 16 252 48 424
111 536 198 1052 467 2274 1185 249 147 545 318 658 381 249 137 237 130 230
138 -6 6 -368 -124 -564 -204 -147 -60 -546 -238 -800 -358 -93 -44 -253 -119
-355 -167 -466 -219 -969 -438 -1300 -565 -118 -46 -298 -115 -399 -155 l-183
-72 -257 205 c-283 227 -389 316 -501 421 l-75 71 50 -5 c319 -31 998 -39
1255 -16 684 61 1258 205 2395 601 1323 461 1878 750 2830 1471 66 50 127 97
135 105 24 24 -3 15 -45 -15z"/>
<path d="M7262 5404 c-33 -23 -28 -57 13 -93 39 -34 69 -40 79 -15 9 25 7 83
-4 105 -13 23 -57 25 -88 3z"/>
<path d="M6834 5245 c-22 -34 -13 -52 35 -66 54 -16 75 -7 66 29 -15 62 -71
83 -101 37z"/>
<path d="M6377 5189 c-22 -13 -46 -60 -39 -79 8 -22 31 -37 78 -50 83 -24 103
6 60 90 -18 36 -28 45 -52 47 -16 2 -37 -2 -47 -8z"/>
<path d="M5960 5147 c-30 -15 -55 -58 -47 -81 10 -26 92 -57 121 -46 23 8 24
12 14 47 -10 38 -44 93 -56 93 -4 0 -18 -6 -32 -13z"/>
<path d="M16410 10419 c1 -8 42 -42 93 -76 88 -59 163 -123 453 -384 128 -115
514 -435 794 -659 100 -79 191 -141 293 -198 81 -46 152 -82 156 -80 36 13
-643 674 -939 914 -185 150 -499 359 -662 441 -96 49 -188 69 -188 42z"/>
<path d="M15112 7643 c-9 -3 9 -28 50 -72 36 -36 106 -122 158 -191 104 -140
353 -395 590 -604 170 -151 164 -147 271 -191 93 -39 99 -40 99 -22 0 26 -82
213 -104 237 -12 14 -72 86 -131 160 -152 190 -229 274 -314 347 -81 69 -230
170 -331 225 -56 30 -263 119 -272 117 -2 0 -9 -3 -16 -6z"/>
</g>
</svg>
