<?xml version="1.0" encoding="UTF-8" standalone="no"?>
<!-- Created with Inkscape (http://www.inkscape.org/) -->

<svg
   width="161.1861mm"
   height="112.6777mm"
   viewBox="0 0 161.1861 112.6777"
   version="1.1"
   id="svg1"
   xml:space="preserve"
   xmlns:xlink="http://www.w3.org/1999/xlink"
   xmlns="http://www.w3.org/2000/svg"
   xmlns:svg="http://www.w3.org/2000/svg"><defs
     id="defs1"><linearGradient
       id="linearGradient4"><stop
         style="stop-color:#88ffde;stop-opacity:1;"
         offset="0"
         id="stop4" /><stop
         style="stop-color:#005995;stop-opacity:1;"
         offset="1"
         id="stop5" /></linearGradient><linearGradient
       id="linearGradient2"><stop
         style="stop-color:#ffb17d;stop-opacity:1;"
         offset="0"
         id="stop2" /><stop
         style="stop-color:#ff040d;stop-opacity:1;"
         offset="1"
         id="stop3" /></linearGradient><linearGradient
       xlink:href="#linearGradient2"
       id="linearGradient3"
       x1="124.95248"
       y1="117.81483"
       x2="180.48692"
       y2="117.81483"
       gradientUnits="userSpaceOnUse"
       gradientTransform="translate(-4.9868067,-28.971827)" /><linearGradient
       xlink:href="#linearGradient4"
       id="linearGradient5"
       x1="14.256324"
       y1="122.88945"
       x2="142.84277"
       y2="122.88945"
       gradientUnits="userSpaceOnUse"
       gradientTransform="translate(-4.9868067,-28.971827)" /></defs><g
     id="layer1"
     transform="translate(-10.712491,-37.570853)"><path
       id="path2"
       style="display:inline;fill:url(#linearGradient3);fill-opacity:1;stroke-width:1.30651;stroke-linejoin:round"
       d="m 168.30811,37.617385 c 0,-0.01896 -0.12764,0.0023 -0.2837,0.04754 -0.26021,0.07538 -2.20912,0.404205 -5.91541,0.997356 -2.90253,0.464522 -6.84647,1.34199 -9.58132,2.132171 -5.35626,1.547578 -9.6533,3.667644 -13.25087,6.537072 -1.25315,0.999511 -4.99544,4.722933 -6.46266,6.430098 -0.57527,0.669347 -1.28447,1.494381 -1.57613,1.83348 -0.21794,0.253377 -0.37813,0.378124 -0.51676,0.483692 l 0.27491,0.951363 c 1.47628,-0.65727 2.63905,-1.060703 3.52227,-1.100192 0.72411,-0.03238 0.91198,-0.0082 1.47795,0.188103 0.35656,0.123709 0.75258,0.224792 0.88056,0.224792 0.35655,0 1.22238,0.47261 1.63194,0.890902 0.20195,0.206263 0.47889,0.579735 0.61547,0.829923 l 0.24856,0.454753 2.00402,-1.749764 c 5.37084,-4.690681 10.04991,-8.073177 13.48496,-9.747725 0.75414,-0.367631 0.90469,-0.409237 1.65881,-0.45837 0.4562,-0.02972 0.86002,-0.02914 0.89711,0.0015 0.0976,0.08088 -0.25928,0.841307 -0.6258,1.333769 -0.60575,0.813899 -3.96064,3.477467 -6.30505,5.005379 -2.00344,1.305703 -7.10907,4.25755 -9.73067,5.626013 l -1.2268,0.640788 0.10284,0.397908 c 0.28995,1.121275 0.40913,2.483379 0.35192,4.02146 -0.0549,1.475231 -0.35497,3.928491 -0.61392,5.019849 -0.0683,0.287731 -0.11634,0.530647 -0.10697,0.540019 0.009,0.0094 0.29115,-0.188941 0.62632,-0.4408 0.33518,-0.251859 0.98342,-0.713334 1.44022,-1.025778 0.4568,-0.312443 1.32114,-0.976963 1.92081,-1.476395 0.59967,-0.499434 1.5422,-1.281444 2.09445,-1.737879 3.9376,-3.254455 7.09654,-6.517943 13.27619,-13.713891 3.71071,-4.320961 6.01151,-7.286577 7.98246,-10.290332 0.63992,-0.975248 1.70429,-2.75313 1.70429,-2.846856 z m -3.8101,14.445118 -0.40153,0.63407 c -0.2209,0.348654 -0.83465,1.242043 -1.36374,1.985409 -0.52908,0.743365 -0.94162,1.372355 -0.91674,1.39733 0.0249,0.02497 0.81766,0.06799 1.76216,0.09612 1.23226,0.0367 1.88395,0.09535 2.30684,0.207223 0.32414,0.08575 0.58963,0.184005 0.58963,0.218591 0,0.03459 -0.38343,0.148325 -0.85163,0.252698 -0.91007,0.202872 -1.1219,0.197988 -3.46542,-0.08527 l -0.86816,-0.104903 -0.31058,0.382405 c -0.17083,0.210363 -0.78231,0.928847 -1.35857,1.596802 -0.57625,0.667955 -1.13905,1.327605 -1.25057,1.465544 l -0.20257,0.25063 0.85782,5.17e-4 c 1.18329,0.001 3.90701,0.342237 5.83427,0.730705 0.81751,0.164781 0.86106,0.153942 0.92346,-0.22996 0.0292,-0.179406 0.112,-0.394846 0.18397,-0.479041 0.072,-0.08419 0.77522,-0.872521 1.56321,-1.751831 2.43797,-2.720481 2.5119,-2.81119 2.69751,-3.307291 0.21497,-0.574538 0.22627,-1.181475 0.0279,-1.51722 -0.18163,-0.307472 -0.40076,-0.397005 -2.31252,-0.946196 -1.83403,-0.526856 -2.42439,-0.672848 -3.0024,-0.74259 z m -7.2037,9.199439 -2.67839,2.635498 c -3.51441,3.45774 -4.65648,4.467379 -7.39386,6.539652 -0.62428,0.472592 -1.1726,0.893481 -1.21853,0.935341 -0.0459,0.0418 0.26857,-0.0431 0.69866,-0.18913 3.27135,-1.110625 7.77329,-1.961638 12.176,-2.301155 2.55946,-0.197372 4.30138,-0.253737 4.26279,-0.137976 -0.0177,0.05297 -0.67949,0.264696 -1.47071,0.470256 -0.79121,0.20556 -3.25336,0.852843 -5.4715,1.438672 -3.94267,1.041283 -6.89914,1.740623 -9.46867,2.239653 l -1.27796,0.24857 1.01596,0.33848 c 2.05575,0.68501 4.12098,1.82795 5.90558,3.26802 0.92641,0.74755 2.47721,2.25935 3.27422,3.19205 l 0.48007,0.56172 0.61134,-0.59066 c 0.33615,-0.32499 1.12187,-1.01374 1.74614,-1.53066 0.62428,-0.51691 2.12481,-1.67913 3.33468,-2.58227 3.93459,-2.93708 8.10699,-6.394779 9.70174,-8.039817 l 0.37672,-0.38809 -1.24954,-0.572058 c -0.68726,-0.314627 -2.38906,-1.050939 -3.78168,-1.636076 -1.39261,-0.585137 -3.10191,-1.312455 -3.79822,-1.616439 -2.07812,-0.90723 -3.38183,-1.43638 -4.6116,-1.87172 z m -20.22926,13.790891 -0.61029,0.92966 c -1.44384,2.19916 -3.51929,4.24136 -5.74487,5.6534 -0.13162,0.0835 0.0717,0.10542 1.03198,0.10955 2.06857,0.009 3.97457,0.33547 6.70553,1.1498 3.10829,0.92684 9.02843,2.97361 10.25932,3.54707 0.6723,0.31321 1.3891,0.64165 1.59319,0.72968 0.35725,0.15409 0.53188,0.40011 0.21859,0.30799 -0.084,-0.0247 -0.74213,-0.12705 -1.46245,-0.22738 -0.72032,-0.10032 -1.52596,-0.2247 -1.79007,-0.27595 -1.16218,-0.22552 -6.373,-1.67998 -10.93783,-3.05305 -2.71989,-0.81812 -4.97913,-1.40133 -6.088,-1.57199 l -0.65526,-0.10077 -0.70538,0.3545 c -0.20562,0.10338 -0.44561,0.18089 -0.66508,0.27492 l 1.46296,1.30896 c 0.24217,-0.10699 0.62723,-0.2934 0.69402,-0.30954 0.14406,-0.0348 0.47795,-0.15915 0.74207,-0.27647 0.61802,-0.27453 1.50758,-0.28376 2.19418,-0.0227 0.25769,0.098 0.7017,0.22012 0.9865,0.27182 1.03395,0.18769 2.141,0.92579 2.74506,1.83038 0.39267,0.58803 0.65229,1.33003 0.82475,2.35645 l 0.10956,0.65267 0.95704,-0.0439 c 1.85877,-0.0848 3.87061,-0.009 6.72001,0.25425 2.67097,0.24627 8.74478,0.72969 10.56473,0.84078 0.43219,0.0264 0.91088,0.0668 1.06401,0.0904 0.25195,0.0387 0.17323,-0.0597 -0.8294,-1.03973 -0.60933,-0.5956 -1.22536,-1.18956 -1.36943,-1.31981 -0.14406,-0.13025 -0.49787,-0.46114 -0.786,-0.73536 -1.69775,-1.61582 -4.58376,-3.9937 -6.81043,-5.61103 -2.19793,-1.59646 -4.0954,-2.71572 -7.42126,-4.37751 -1.00844,-0.50388 -2.09572,-1.09156 -2.41587,-1.30638 z m 24.03988,6.89105 -0.69866,0.38241 c -0.38417,0.21038 -1.03448,0.52543 -1.44539,0.70021 l -0.74725,0.31781 0.67748,1.12862 c 0.37261,0.6206 0.94051,1.6467 1.26194,2.28048 0.32143,0.63378 0.62531,1.17883 0.67541,1.21129 0.0501,0.0325 0.42761,0.087 0.83871,0.12092 1.02351,0.0843 2.48638,0.3902 3.75119,0.78497 0.91023,0.2841 1.1062,0.37921 1.40612,0.68213 0.38821,0.3921 0.41832,0.47587 0.19585,0.54622 -0.084,0.0266 -0.30088,0.10997 -0.48162,0.18552 -0.30963,0.12943 -0.40018,0.12382 -1.56735,-0.0997 -1.19168,-0.22823 -2.89873,-0.72098 -3.41633,-0.98599 -0.13653,-0.0699 -0.26027,-0.11426 -0.27492,-0.0987 -0.0147,0.0156 0.10853,0.42103 0.27337,0.90124 0.22725,0.66199 0.28875,0.96346 0.25425,1.24747 -0.0698,0.57423 -0.16847,0.69066 -0.68006,0.80202 -0.4874,0.10609 -3.30758,0.25715 -4.91236,0.26303 l -0.96015,0.004 0.74207,0.4036 c 0.79739,0.43365 2.73693,1.67908 3.38377,2.17299 0.21766,0.1662 0.43337,0.30231 0.47956,0.30231 0.0462,0 0.2037,-0.10079 0.34985,-0.22376 v -5.2e-4 c 0.31979,-0.26908 1.04615,-0.64291 1.93838,-0.99735 0.36182,-0.14373 1.51286,-0.63877 2.55747,-1.10019 2.2733,-1.00414 3.17494,-1.36802 4.73666,-1.91152 0.64829,-0.22561 1.21237,-0.44219 1.25316,-0.4811 0.28537,-0.27228 -0.69173,-1.26076 -4.09071,-4.1398 -3.36003,-2.84606 -3.89731,-3.28367 -4.80229,-3.91294 z m -23.15776,9.09144 -0.10542,0.74879 c -0.1114,0.79184 -0.19564,1.17575 -0.56637,2.58278 -0.48804,1.85226 -1.05502,2.9621 -2.28772,4.47673 -0.12787,0.15711 -0.21689,0.29826 -0.19792,0.31368 0.019,0.0154 0.61803,0.32751 1.33119,0.69401 2.04294,1.049897 2.84249,1.626117 5.31233,3.826147 1.32115,1.17683 2.70928,2.70273 2.51716,2.76677 -0.084,0.028 -1.59855,-0.51237 -1.95957,-0.69919 -0.28644,-0.14821 -2.88861,-1.95146 -3.80545,-2.63706 -0.45621,-0.34114 -1.51113,-1.27848 -2.34456,-2.08308 l -1.51515,-1.462967 -0.34882,0.2837 c -1.73404,1.412037 -3.49244,2.238677 -5.44308,2.559537 -1.07553,0.17691 -2.94453,0.12322 -4.08709,-0.11782 l -0.77256,-0.1633 0.0517,0.31265 c 0.0284,0.17176 0.0517,0.38106 0.0522,0.46509 7.6e-4,0.12054 0.0766,0.15245 0.35915,0.15245 0.58579,0 1.80753,0.46711 3.86178,1.47641 3.05827,1.50258 4.96524,2.24797 9.30538,3.63855 4.05075,1.29786 6.52302,1.96559 9.96166,2.69029 3.74919,0.79016 3.52489,0.76115 3.4029,0.44029 -0.26008,-0.68407 -1.61962,-3.60366 -2.27428,-4.88397 -2.28386,-4.46644 -7.55137,-13.009437 -9.24647,-14.996537 -0.0312,-0.0365 -0.31414,-0.13803 -0.6289,-0.22531 z m 3.84938,0.86971 c -0.0158,0.0158 0.21818,0.20999 0.51986,0.4315 0.30168,0.22151 0.90024,0.73136 1.33015,1.13275 0.59001,0.55086 1.14981,0.95011 2.28255,1.6278 1.53974,0.92119 1.74237,1.07265 1.64486,1.23042 -0.088,0.14243 -0.27798,0.10941 -0.75292,-0.13126 -0.89024,-0.45112 -0.90689,-0.4276 -0.23255,0.33228 2.66289,3.00065 5.36651,6.838797 6.74119,9.569477 l 0.46768,0.92914 1.22938,0.55139 c 0.6762,0.30329 2.22218,0.96486 3.43545,1.47021 1.21328,0.50536 2.99179,1.2927 3.95221,1.74977 2.32396,1.10598 3.79573,1.72991 5.68183,2.40968 1.96768,0.70919 1.82446,0.65751 1.84123,0.6656 0.008,0.004 -0.57606,-0.96535 -1.2976,-2.15388 -4.7408,-7.80915 -7.20754,-11.19948 -11.15849,-15.336077 -0.93678,-0.98081 -2.99389,-2.89603 -3.80752,-3.54501 l -0.62115,-0.49506 -3.5264,-0.0568 c -3.54444,-0.0566 -5.8547,-0.16235 -7.05435,-0.3235 -0.3556,-0.0478 -0.65958,-0.0742 -0.67541,-0.0584 z m 4.41833,2.61224 c 0.75025,0.0721 2.78594,1.23034 5.23483,2.97863 1.85892,1.3271 3.18184,2.46643 6.41873,5.527847 1.7669,1.67112 3.74105,3.78765 3.52795,3.78222 -0.0643,-0.002 -0.703,-0.33663 -1.41904,-0.74414 -0.71604,-0.40752 -1.67841,-1.04259 -2.13889,-1.4113 -2.5097,-2.00955 -6.2235,-5.086997 -7.24503,-6.003787 -2.67651,-2.4021 -3.23493,-2.87509 -4.00131,-3.38998 -0.93402,-0.62752 -1.02263,-0.8015 -0.37724,-0.73949 z m -21.99607,13.601287 c -0.0318,0 -9.1e-4,0.30429 0.0693,0.67644 0.17557,0.93105 0.16536,3.05291 -0.0207,4.21269 -0.0809,0.50424 -0.28278,1.43002 -0.44856,2.05726 -0.16578,0.62723 -0.30179,1.18312 -0.30179,1.23506 0,0.0519 0.38044,0.50157 0.84543,0.99892 1.94043,2.07549 2.15935,2.38883 3.99097,5.71906 1.00734,1.83154 1.94278,3.92303 1.86242,4.16412 -0.0753,0.22577 -1.66277,-1.77361 -2.9006,-3.65304 -1.8298,-2.77821 -2.2266,-3.43659 -3.15484,-5.23847 l -0.80926,-1.572 -0.19533,0.48059 c -0.21924,0.53917 -1.00823,2.09968 -1.11828,2.21176 -0.0393,0.0401 0.19207,0.4919 0.51418,1.00409 0.32211,0.51217 1.08497,1.84615 1.6955,2.96417 1.36455,2.49885 1.77191,3.19032 2.63447,4.47159 2.38549,3.54349 5.08879,6.4728 8.99015,9.74262 1.43783,1.20507 2.60587,2.08461 2.63859,1.98644 0.015,-0.045 -0.19038,-0.87825 -0.45682,-1.85157 -0.79876,-2.91797 -1.80375,-5.8877 -3.25354,-9.61549 -3.31706,-8.52902 -6.2971,-14.57724 -8.93744,-18.14008 -0.60775,-0.8201 -1.52442,-1.85416 -1.64383,-1.85416 z m 2.21278,1.09709 c 0.0186,0.0235 0.0772,0.0681 0.1416,0.12351 0.12005,0.10331 0.5685,0.48996 0.99632,0.85887 1.87856,1.61993 4.53055,5.02646 6.57169,8.4414 2.48883,4.16395 5.24912,9.97259 6.43217,13.53516 l 0.23254,0.69971 0.98185,0.18965 c 2.59895,0.50123 5.57323,1.22382 7.79178,1.89292 1.34458,0.40551 2.45311,0.72898 2.46341,0.71881 0.0103,-0.0102 -0.24929,-0.68455 -0.57722,-1.49862 -0.89364,-2.21849 -1.35492,-3.30194 -2.71198,-6.36967 -0.67978,-1.53669 -1.64857,-3.83515 -2.15284,-5.10773 -1.57441,-3.9731 -1.96432,-4.88511 -2.79932,-6.54848 -0.44597,-0.88838 -0.98117,-1.83136 -1.18959,-2.09548 l -0.3793,-0.48008 -1.04128,-0.20825 c -1.40763,-0.28143 -5.32132,-1.21127 -7.19698,-1.70999 -2.3691,-0.62992 -3.99701,-1.1392 -5.71386,-1.78698 -1.59952,-0.60353 -1.90479,-0.72516 -1.84899,-0.65475 z m 28.71195,1.12449 c -0.0153,0.0153 0.0755,0.39607 0.20205,0.84595 0.48553,1.72514 0.59439,2.87124 0.30748,3.23599 -0.0931,0.11831 -0.19552,0.32056 -0.2279,0.4496 -0.15093,0.60134 -0.82428,0.72072 -2.32285,0.41237 -0.74944,-0.1542 -3.26506,-0.52969 -3.54759,-0.52969 -0.17194,0 0.24157,0.32705 1.2914,1.02269 1.3716,0.90889 2.30459,1.7296 3.45767,3.04066 0.72568,0.82509 1.12133,1.35695 1.31413,1.76631 0.15175,0.32222 0.26033,0.61108 0.24133,0.64182 -0.0341,0.0552 -1.03023,-0.27814 -1.36219,-0.45579 -0.36356,-0.19457 -2.24764,-1.84124 -2.9993,-2.62156 -0.43369,-0.45022 -1.03823,-1.15245 -1.34359,-1.56063 -0.30535,-0.40819 -0.68718,-0.86803 -0.84853,-1.02165 -0.33251,-0.31659 -0.36353,-0.48034 -0.13384,-0.71004 0.1548,-0.1548 0.1242,-0.16437 -0.98237,-0.31472 -1.18311,-0.16076 -4.6436,-0.70852 -5.02708,-0.79581 -0.17083,-0.0389 -0.0643,0.10802 0.48989,0.67592 1.39962,1.43441 2.73135,3.44063 5.06532,7.63163 l 0.19896,0.35812 0.41909,-0.0693 c 0.81465,-0.13399 1.35314,-0.074 3.66748,0.40773 3.28031,0.68286 3.99856,0.8073 4.70204,0.81545 0.56446,0.007 0.63565,-0.0128 0.84181,-0.23254 1.08441,-1.15603 1.33376,-3.81261 0.85059,-9.05893 -0.0301,-0.32712 -0.0301,-0.3597 -0.0548,-0.63717 l -0.35243,-1.5193 c -0.12919,-0.0703 -0.30006,-0.14975 -0.52658,-0.23874 -0.41986,-0.16495 -1.33281,-0.58503 -2.0283,-0.93329 -0.69549,-0.34824 -1.27661,-0.62044 -1.29191,-0.60513 z m -20.66179,8.49307 c 0.0934,-0.049 0.42579,0.056 1.02526,0.30128 1.09074,0.44621 1.77345,0.81115 2.86236,1.52911 1.6297,1.07452 2.28437,1.72195 4.42247,4.37495 1.08742,1.34929 1.24991,1.59594 1.5353,2.32597 0.1756,0.44917 0.31936,0.86039 0.31936,0.91364 0,0.14449 -0.14969,0.10911 -0.90175,-0.21187 -0.88733,-0.3787 -0.85461,-0.35518 -2.33009,-1.66037 -2.06845,-1.82975 -4.24197,-4.05571 -5.15421,-5.27826 -0.4479,-0.60027 -1.06415,-1.35149 -1.36942,-1.66968 -0.35728,-0.37239 -0.5027,-0.57573 -0.40928,-0.62477 z m 6.96908,16.0265 c -0.0115,0.0114 0.10804,0.49213 0.26562,1.06816 0.15759,0.57604 0.37971,1.4697 0.49351,1.98594 0.1138,0.51622 0.23194,0.93844 0.26303,0.93844 0.0311,0 0.10877,-0.0631 0.1726,-0.14004 0.0638,-0.0769 0.322,-0.27157 0.57361,-0.43253 0.57855,-0.37009 0.68043,-0.53472 0.85163,-1.37925 0.22639,-1.11676 0.32522,-0.99186 -1.23093,-1.56116 -0.75265,-0.27535 -1.37762,-0.49102 -1.38907,-0.47956 z m 3.39825,1.22888 c -2.4e-4,2.3e-4 0.01,0.0286 0.01,0.0294 l 0.006,-0.0258 c -3.7e-4,8e-5 -0.0159,-0.004 -0.016,-0.004 z" /><path
       id="path1"
       style="display:inline;fill:url(#linearGradient5);fill-opacity:1;stroke-width:1.30651;stroke-linejoin:round"
       d="m 119.08269,37.594647 c -1.22069,-0.07895 -2.46818,0.03733 -3.46697,0.36742 -1.05934,0.350101 -3.0555,1.515909 -2.9838,1.74253 0.0395,0.124735 1.40317,0.884209 2.13424,1.188559 0.7662,0.318966 1.43849,0.440059 2.46031,0.444417 0.74324,0.0032 1.6978,-0.184624 2.05207,-0.404109 0.36494,-0.226101 0.71338,-0.225184 1.04903,0.0026 0.23729,0.16103 0.43139,0.214457 0.77722,0.214457 0.61654,0 0.80076,0.198072 0.97927,1.054199 0.15647,0.750432 0.11719,2.104309 -0.0672,2.326475 -0.0641,0.07729 -0.11995,0.374348 -0.12609,0.67076 -0.0194,0.935924 -0.48957,2.407443 -0.88935,2.78226 -1.1999,1.124973 -3.97106,1.25391 -6.78305,0.315226 -0.43219,-0.144271 -1.49701,-0.626213 -2.36678,-1.070735 l -1.58182,-0.80822 0.45475,0.704867 c 0.24999,0.387585 0.85778,1.411966 1.35083,2.276347 0.49305,0.864381 1.06568,1.807352 1.27227,2.095479 0.71716,1.000169 1.70724,1.82098 2.79156,2.314071 0.7722,0.351153 2.30605,0.39789 3.8809,0.118339 0.40569,-0.07201 0.86804,-0.185627 1.02733,-0.252181 0.8045,-0.336142 2.59094,-1.989709 3.3383,-3.090251 0.53124,-0.782295 1.00415,-1.833649 1.28054,-2.847371 0.21622,-0.792999 0.23761,-1.013412 0.24443,-2.485638 0.005,-1.037671 -0.0332,-1.802347 -0.10697,-2.138888 -0.27828,-1.270554 -0.82512,-2.559117 -1.32912,-3.133144 -0.30027,-0.341981 -1.62875,-1.348889 -2.08721,-1.581817 -0.89018,-0.45227 -2.08402,-0.726681 -3.30471,-0.805636 z m -25.163904,8.40466 c -3.236512,-0.0019 -5.731197,0.315853 -9.212869,1.174089 -6.817397,1.680496 -13.824686,5.114906 -16.963309,8.314221 -2.123354,2.164414 -3.585279,4.351061 -4.180107,6.252332 -0.189778,0.606593 -0.219063,0.829704 -0.17725,1.353405 0.109968,1.377342 1.016512,3.161149 2.287716,4.501534 0.755099,0.796194 1.465334,1.309695 2.425691,1.753382 1.605272,0.741637 2.527858,0.888513 5.602242,0.892969 3.295657,0.0048 5.366335,-0.287154 8.144206,-1.147734 1.822367,-0.564566 3.251248,-1.179999 6.460593,-2.782776 3.526189,-1.761012 4.507713,-2.18338 6.529831,-2.809647 1.682701,-0.521149 3.507132,-0.605968 4.933033,-0.229961 0.456197,0.1203 1.141327,0.300548 1.522917,0.400493 0.38157,0.09995 1.02997,0.344102 1.44074,0.542602 1.46799,0.709382 2.46183,1.508768 5.23898,4.214213 4.54054,4.423274 6.92647,6.156724 10.23609,7.438304 1.40531,0.54418 3.37199,0.75579 5.17901,0.55707 1.20858,-0.13291 2.04854,-0.33834 2.57556,-0.62993 1.25192,-0.6927 2.85077,-2.05504 3.99303,-3.40289 2.12202,-2.503935 3.33193,-5.320903 3.56723,-8.303891 l 0.0605,-0.768428 -0.33951,0.152962 c -1.29927,0.584233 -3.27769,2.410893 -4.31034,3.980119 -0.53286,0.809734 -1.50341,2.694911 -1.8097,3.515547 -0.2363,0.633121 -0.47772,0.727251 -1.08728,0.423751 -0.2568,-0.12787 -0.56518,-0.35139 -0.68523,-0.497131 -0.12006,-0.145745 -0.38582,-0.45645 -0.59066,-0.68988 -0.97833,-1.11492 -1.88033,-3.675332 -1.72341,-4.891175 0.20725,-1.605754 0.74782,-2.659518 2.20555,-4.298962 1.56235,-1.757092 2.42327,-2.409003 4.60541,-3.486609 0.45243,-0.223423 0.74459,-0.317207 1.13171,-0.489893 l -0.35502,-0.867647 c -0.0152,0.0085 -0.0676,0.07095 -0.0775,0.07286 -0.19018,0.03668 -0.47623,-0.299135 -0.47904,-0.56224 -0.004,-0.35565 -0.11563,-0.280774 -0.6041,0.40256 -2.41858,3.383464 -6.67918,5.586785 -10.81019,5.590873 -1.86882,0.0018 -2.93304,-0.276876 -4.95836,-1.299146 -1.95262,-0.985581 -2.60089,-1.506609 -4.1367,-3.323828 -1.66163,-1.966071 -1.85947,-2.248474 -3.24169,-4.636926 -1.3041,-2.25348 -1.59689,-2.676583 -2.26964,-3.275769 -0.7642,-0.680629 -2.11511,-1.559008 -2.897,-1.884123 -0.9316,-0.38737 -2.483841,-0.818671 -3.782195,-1.050582 -0.997174,-0.178114 -1.416171,-0.202905 -3.448889,-0.204122 z m 0.11318,2.547132 c 1.094614,0.0074 2.165948,0.0562 2.767785,0.143144 2.069458,0.298967 3.230049,0.715204 5.153699,1.848465 1.42471,0.839321 1.56808,0.951153 1.41388,1.105359 -0.0808,0.08078 -0.20768,0.07257 -0.5638,-0.03772 -2.38923,-0.73991 -6.174399,-0.879946 -9.952888,-0.367937 -0.725877,0.09836 -1.038734,0.105288 -1.387511,0.03049 -0.822047,-0.176296 -1.977871,0.04231 -4.410076,0.834058 -0.822624,0.26779 -2.217431,0.784478 -3.099555,1.14825 -0.882124,0.363773 -1.913341,0.777775 -2.291845,0.919841 -0.942987,0.353936 -1.67457,0.726343 -2.193148,1.116728 -0.240106,0.180751 -0.632709,0.438661 -0.872815,0.573091 -1.080858,0.605151 -3.208211,1.966922 -3.968233,2.540414 -1.080116,0.815024 -1.867929,1.542609 -2.782776,2.569869 l -0.738456,0.829406 0.644922,0.165882 c 0.542604,0.139723 0.978376,0.167284 2.740918,0.172082 2.124842,0.0058 3.182976,-0.07398 5.23844,-0.394291 2.636582,-0.410874 4.505973,-0.861865 8.469252,-2.042769 4.184776,-1.246902 5.37127,-1.514747 7.115838,-1.607654 0.972597,-0.05179 1.463784,-0.117025 1.746151,-0.231511 0.329067,-0.133424 0.641087,-0.158941 1.920808,-0.157613 1.785634,0.0019 2.758584,0.118297 4.329484,0.518315 3.17743,0.80911 5.56908,2.214032 9.72761,5.713863 3.93512,3.311829 6.72412,5.512008 8.51369,6.716903 1.10214,0.742053 1.32612,0.927943 1.48105,1.230933 0.26478,0.51782 0.25325,0.59123 -0.12041,0.78186 -0.27293,0.13924 -0.50059,0.17619 -1.03043,0.16692 -0.37408,-0.007 -0.77808,-0.02828 -0.89813,-0.04858 -0.77203,-0.13006 -2.07126,-0.49537 -2.68615,-0.75499 -1.451,-0.61265 -2.61529,-1.41422 -6.87503,-4.734595 -3.25263,-2.535355 -4.90426,-3.638893 -6.75208,-4.511869 -2.52571,-1.19324 -5.457214,-1.764727 -7.945789,-1.548743 -2.024018,0.175665 -3.519752,0.466861 -8.040855,1.56683 -1.563881,0.380487 -3.260812,0.771599 -3.771352,0.868681 -2.519045,0.47901 -5.912966,0.763243 -7.933877,0.664559 -2.980095,-0.145522 -4.813685,-0.645562 -6.068364,-1.65468 -0.525825,-0.422912 -0.547041,-0.428811 -0.880566,-0.232027 -0.169238,0.09985 -0.338466,0.181901 -0.375688,0.181901 -0.175344,0 0.02331,-1.033049 0.307475,-1.598352 1.207611,-2.402384 2.946365,-4.492139 5.028117,-6.043042 4.729788,-3.523686 10.191553,-5.668897 16.13338,-6.337081 0.694937,-0.07815 1.812701,-0.111812 2.907325,-0.104386 z m 5.802227,4.360974 c 0.238277,0.01206 0.447647,0.139576 0.567407,0.379305 0.20329,0.406932 0.21321,1.498857 0.0155,1.696537 -0.16618,0.166176 -0.11243,0.170471 -0.454747,-0.03824 -0.15749,-0.09602 -0.46179,-0.350152 -0.676447,-0.564824 -0.459847,-0.45985 -0.525437,-0.849436 -0.19431,-1.159619 0.23666,-0.221689 0.504307,-0.325219 0.742597,-0.313159 z m -4.151176,0.117305 c 0.280157,0 0.347867,0.04092 0.474397,0.284221 0.141987,0.273008 0.189587,1.276813 0.0698,1.470711 -0.0794,0.128463 -0.41324,0.08927 -0.693507,-0.08165 -0.390237,-0.23798 -0.829404,-0.776975 -0.829404,-1.018025 0,-0.291747 0.542894,-0.655258 0.978744,-0.655257 z m -4.772313,0.827857 c 0.0936,0.01913 0.272677,0.05607 0.397907,0.08216 0.318877,0.06647 0.538617,0.769324 0.475947,1.521871 -0.0718,0.86179 -0.18163,0.972539 -0.790654,0.79375 -0.14406,-0.04229 -0.50757,-0.305789 -0.807707,-0.584977 C 89.71593,55.227923 89.6405,55.11529 89.6405,54.849925 c 0,-0.194636 0.0692,-0.38185 0.1881,-0.50953 0.236397,-0.253747 0.857144,-0.533789 1.082104,-0.487825 z m 13.137206,0.104903 c 0.17926,0.03367 0.32035,0.149053 0.40101,0.342098 0.16729,0.4004 0.15908,1.339917 -0.014,1.586983 -0.2113,0.301686 -0.4471,0.233991 -0.95704,-0.275952 -0.71241,-0.712397 -0.72917,-1.12281 -0.061,-1.504818 0.23421,-0.133899 0.45171,-0.181983 0.63097,-0.148311 z m -75.088981,1.192175 c -5.81563,-0.09725 -10.404384,0.267897 -15.418185,1.226799 -0.868721,0.166145 -1.860605,0.329964 -2.204002,0.363802 l -0.624251,0.0615 0.04237,0.31626 c 0.329345,2.449773 0.480369,3.261458 1.058851,5.685957 0.644463,2.701038 1.779552,6.600559 2.795179,9.604067 1.418497,4.19489 4.375108,10.26992 6.733443,13.83533 0.852072,1.2882 1.15299,1.99465 1.371493,3.22203 0.164282,0.9228 0.204503,0.99114 0.854211,1.43815 0.602571,0.41458 0.957937,0.87819 1.918229,2.50269 2.833536,4.7934 3.929861,6.294565 9.61285,13.164082 1.103162,1.3335 2.015323,2.4138 2.027267,2.40091 0.01194,-0.0129 -0.07106,-0.495 -0.184485,-1.07126 -0.302504,-1.53682 -0.534485,-3.22021 -0.775663,-5.63121 -0.517834,-5.176672 -0.718819,-8.965652 -0.577226,-10.882042 0.23607,-3.19509 0.949489,-5.50342 1.779219,-5.75778 0.105091,-0.0322 0.420717,-0.17139 0.701766,-0.30954 0.28105,-0.13815 0.576895,-0.25115 0.657325,-0.25115 0.08043,0 0.223605,-0.05298 0.318326,-0.11782 0.318206,-0.21791 0.600423,-0.23486 0.898137,-0.05375 0.155283,0.0944 0.436804,0.17157 0.625285,0.17157 0.46024,0 0.548351,0.12894 1.729093,2.53214 2.339065,4.76079 5.854121,10.20842 8.731767,13.533032 0.878487,1.01495 3.444376,3.57539 4.262789,4.25351 l 0.444934,0.36846 -0.21084,-0.89195 c -0.456099,-1.93298 -1.497158,-8.074422 -1.681034,-9.916212 -0.236379,-2.36767 0.02282,-4.71566 0.67386,-6.10454 0.217401,-0.46378 0.999576,-0.84904 1.554427,-0.76584 0.243298,0.0365 0.419598,0.11763 0.473357,0.21807 0.09759,0.18235 0.227273,1.26992 0.315226,2.6448 l 0.05994,0.93896 h 0.238229 c 0.278216,0 0.420387,0.10231 1.702221,1.22474 0.528234,0.46254 1.431892,1.22598 2.008147,1.69653 1.057871,0.86383 1.984821,1.66285 5.32784,4.59352 2.072338,1.816732 2.995904,2.569652 3.066479,2.499082 0.02653,-0.0265 0.08254,-1.06283 0.12454,-2.302717 0.111014,-3.277215 0.374754,-5.408045 0.959115,-7.749395 0.302389,-1.21156 0.457273,-1.51747 0.871781,-1.7203 1.007254,-0.49289 1.644214,-0.77283 1.873788,-0.82373 0.144064,-0.0319 0.341469,-0.10689 0.438216,-0.16691 0.380749,-0.23621 0.689841,-0.23747 1.034045,-0.0041 0.23892,0.16213 0.428275,0.21808 0.701766,0.20774 0.205984,-0.008 0.423803,0.01645 0.484209,0.05375 0.140494,0.0868 0.889999,1.24891 1.776119,2.75332 2.616694,4.44249 4.289255,6.80966 6.533968,9.248012 l 0.665587,0.72296 0.0527,-0.37982 c 0.0289,-0.20884 0.0929,-0.87098 0.142627,-1.47123 0.0498,-0.600277 0.1334,-1.518932 0.18552,-2.041742 l 0.0946,-0.95085 -0.895037,-0.89813 -0.895544,-0.89866 0.472317,-0.13332 c 0.25972,-0.0736 0.982864,-0.23674 1.607144,-0.36225 1.292951,-0.25995 2.047628,-0.45999 2.202448,-0.58395 0.210237,-0.16834 1.316091,-0.03467 1.971968,0.23823 0.20669,0.086 1.369941,1.4309 1.369941,1.58388 0,0.0649 0.0385,0.11783 0.0853,0.11783 0.0468,0 0.14746,0.12064 0.22376,0.2682 0.278927,0.53937 5.00503,6.844912 5.07669,6.773252 0.0171,-0.0171 0.11028,-0.83234 0.20672,-1.8118 0.255997,-2.599952 0.749914,-5.439122 1.048504,-6.025472 0.0925,-0.1816 0.282657,-0.37264 0.448547,-0.45062 0.809447,-0.38052 1.289674,-0.58704 1.364261,-0.58704 0.0456,0 0.19526,-0.0585 0.3328,-0.13023 0.312537,-0.16299 0.707627,-0.16319 0.992177,-5.2e-4 0.12005,0.0686 0.32858,0.12595 0.46304,0.12765 0.36635,0.005 0.69086,0.20694 1.15496,0.71985 0.67611,0.7472 1.07789,1.44386 2.48101,4.303605 1.14972,2.343307 1.35615,2.829867 1.53996,3.623567 0.11845,0.51143 0.36219,1.22525 0.55139,1.6149 0.34227,0.7049 1.15737,3.04164 1.3374,3.83442 0.12995,0.57225 -0.019,1.81357 -0.35968,2.99725 -0.37318,1.29665 -0.5611,2.47637 -0.5519,3.46595 0.008,0.85604 0.003,0.87608 -0.33021,1.44695 -0.78547,1.3449 -1.60387,2.18403 -2.61846,2.68358 -0.39309,0.19354 -0.60168,0.23649 -1.14774,0.23823 -0.64994,0.002 -0.69725,-0.013 -1.84331,-0.58395 -1.16136,-0.57865 -2.006637,-1.14473 -3.305748,-2.21383 l -0.665077,-0.54726 -0.370517,1.01906 c -0.731547,2.01064 -1.549911,3.69129 -2.868045,5.89116 -1.022264,1.70609 -1.742928,2.40984 -2.473745,2.41588 -0.322817,0.003 -1.831971,-0.77577 -2.534215,-1.30742 -0.32089,-0.24294 -1.287884,-1.10552 -2.149218,-1.91669 l -1.566321,-1.47486 -0.0599,0.75707 c -0.20079,2.53944 -1.029997,5.23164 -1.826241,5.92887 -0.629337,0.55107 -1.139964,0.49925 -2.746605,-0.2806 -1.400907,-0.68 -2.088142,-1.13151 -3.090251,-2.02883 -0.71821,-0.64311 -2.937942,-2.96935 -4.959904,-5.19816 -0.828986,-0.9138 -0.923869,-0.99252 -0.98857,-0.82166 -0.03936,0.10392 -0.03295,1.34806 0.01395,2.7647 0.112983,3.41255 0.02163,4.78918 -0.425814,6.41722 -0.240661,0.87564 -0.438764,1.26889 -0.785482,1.56064 -0.541329,0.4555 -0.96002,0.40801 -2.179712,-0.24806 -1.043876,-0.56149 -1.793489,-1.14525 -3.087666,-2.40348 -1.637415,-1.59192 -4.660495,-5.22727 -5.176429,-6.22498 l -0.14056,-0.27234 -0.185001,0.23255 c -0.544603,0.68389 -4.855486,8.10017 -5.775358,9.93588 l -0.569475,1.13638 0.08165,0.65887 c 0.08062,0.64939 0.07836,0.66445 -0.182934,1.05163 -0.145798,0.21603 -0.354131,0.43329 -0.462504,0.48266 -0.25778,0.11746 -0.889441,-0.0657 -1.874305,-0.54312 -2.06004,-0.9987 -3.406073,-2.30951 -7.349422,-7.15672 -1.819431,-2.23647 -2.662133,-3.34326 -3.373954,-4.43024 -0.493199,-0.75313 -0.532158,-0.79081 -0.578776,-0.56741 -0.0835,0.40015 -0.478727,3.71221 -0.663009,5.55525 -0.190804,1.90828 -0.213205,2.43476 -0.09612,2.25 0.0453,-0.0715 0.07263,0.11728 0.06925,0.48008 -0.0039,0.41337 0.119357,1.15076 0.399976,2.38798 0.223287,0.98443 0.548496,2.47727 0.722437,3.31765 0.40407,1.95222 0.929578,3.52733 2.06809,6.19911 0.501345,1.17652 1.045227,2.47448 1.208712,2.88406 0.289099,0.72429 0.317594,0.75999 1.029911,1.30949 1.931604,1.49007 2.469917,1.91859 3.002401,2.389 0.699952,0.61834 2.196537,1.56451 2.782259,1.75906 0.236051,0.0784 0.614868,0.17648 0.842326,0.21808 0.48068,0.0879 2.657849,0.0335 3.861263,-0.0966 2.652527,-0.28684 3.478387,-0.42366 5.207951,-0.86403 2.918248,-0.74301 7.235261,-2.16494 10.291361,-3.38946 14.457505,-5.79282 25.862902,-12.55605 37.290791,-22.11294 3.23232,-2.70312 7.65713,-6.58968 8.44343,-7.41664 1.37565,-1.44679 2.04878,-2.586 2.70836,-4.58373 0.59563,-1.804 0.96628,-3.69586 1.0759,-5.48755 l 0.0543,-0.88677 -0.35399,-0.70384 c -0.49341,-0.98134 -0.65596,-1.59889 -0.66559,-2.52647 -0.009,-0.88939 0.11693,-1.29889 0.45475,-1.47589 0.21734,-0.11388 0.2097,-0.1211 -0.51108,-0.49609 -1.34326,-0.698842 -2.77424,-1.850572 -3.76256,-3.028242 -0.35183,-0.41924 -0.86069,-1.0175 -1.13068,-1.32964 -1.22246,-1.41334 -2.25235,-3.28575 -2.67064,-4.85551 -0.19873,-0.7458 -0.23125,-1.04784 -0.23823,-2.21692 -0.009,-1.52657 0.0903,-2.03933 0.60565,-3.13056 0.49513,-1.04833 1.32038,-1.77365 3.26544,-2.87166 l 0.47335,-0.26768 -1.08469,-0.54312 c -2.62785,-1.31618 -4.24815,-2.40508 -6.67299,-4.48448 l -0.87283,-0.7488 -0.0636,0.50075 c -0.0351,0.27536 -0.10641,0.83464 -0.15813,1.24282 -0.0517,0.40818 -0.17126,1.03665 -0.26562,1.39681 -0.0944,0.36016 -0.24913,0.96247 -0.34416,1.3379 -0.81939,3.23705 -3.69185,5.72048 -7.544281,6.52312 -3.262352,0.67969 -6.099874,0.2319 -9.489856,-1.49758 -2.213478,-1.12927 -3.260372,-1.94959 -4.843636,-3.79512 -1.290311,-1.50407 -1.773378,-2.15876 -2.199344,-2.98121 -0.60415,-1.16646 -0.764126,-2.02797 -0.50953,-2.74041 l 0.112655,-0.31574 -0.443901,0.11886 c -1.824371,0.48806 -5.428606,0.68418 -7.909078,0.43046 -2.48848,-0.25454 -3.52626,-0.54863 -5.631697,-1.59732 -1.745123,-0.86922 -2.558551,-1.42431 -3.448885,-2.35334 -2.208776,-2.304794 -3.247429,-3.970263 -3.814755,-6.11694 -0.310314,-1.174184 -0.328666,-2.948594 -0.04134,-3.994588 0.396056,-1.44181 1.052522,-2.553413 2.230355,-3.775997 0.427937,-0.444196 0.723375,-0.808146 0.656291,-0.808736 -0.84852,-0.0076 -5.902327,-0.537486 -12.127463,-1.271842 C 39.10256,55.571357 35.304638,55.255766 28.958929,55.149653 Z m 57.323629,0.42323 c 0.44044,0.07906 0.577307,0.490651 0.546227,1.406116 -0.0328,0.966108 -0.169377,1.093751 -0.852664,0.797367 -0.442057,-0.191746 -1.225254,-1.010691 -1.225254,-1.281058 0,-0.287375 0.587407,-0.822523 0.984954,-0.897103 0.21934,-0.04115 0.39993,-0.05168 0.546737,-0.02532 z m -5.064804,1.429887 c 0.271463,-0.0593 0.560452,0.01599 0.657325,0.270785 0.139087,0.365828 0.102702,1.137867 -0.05633,1.198893 -0.07596,0.02915 -0.144367,0.04979 -0.152445,0.04599 -0.0081,-0.0038 -0.07369,-0.02864 -0.145728,-0.05529 -0.07203,-0.02665 -0.300214,-0.184889 -0.506946,-0.351916 -0.316768,-0.255932 -0.371775,-0.34629 -0.349332,-0.573609 0.02784,-0.28204 0.281992,-0.475548 0.553454,-0.534851 z m -3.893302,1.368392 c 0.389823,-0.03746 0.437026,-0.02062 0.585494,0.206189 0.123775,0.189088 0.158837,0.395751 0.149345,0.884701 -0.01682,0.866216 -0.179154,1.036078 -0.749309,0.783931 -0.431238,-0.190712 -1.028361,-0.836593 -1.028361,-1.112594 0,-0.354252 0.484844,-0.708611 1.042831,-0.762227 z m -42.559159,1.580265 c 4.277249,0.07476 8.886194,0.557345 12.17135,1.274341 0.909405,0.19848 1.180777,0.348994 1.312581,0.727088 0.05221,0.149782 0.157442,0.341168 0.233577,0.425297 0.07614,0.08413 0.116087,0.188529 0.08888,0.232544 -0.08086,0.130827 -1.950032,1.160583 -2.258777,1.244368 -0.371333,0.10077 -3.299884,0.397379 -5.567102,0.56379 -2.082791,0.152874 -7.222204,0.171899 -12.223543,0.04547 -6.107185,-0.154376 -9.482343,-0.203787 -9.726023,-0.142627 -0.237112,0.05951 -0.241437,0.07177 -0.183968,0.515731 0.18483,1.427898 0.580215,2.801207 1.672251,5.811532 1.380943,3.806737 3.14072,8.108277 4.354256,10.642757 l 0.553971,1.15704 h 0.304374 c 0.224882,0 0.346026,0.05769 0.465088,0.22117 l 0.161231,0.22118 1.875854,-0.47697 c 6.247841,-1.58885 11.929125,-2.26716 19.949687,-2.38177 4.598913,-0.0657 8.318285,0.10599 12.791467,0.59066 2.309572,0.25025 6.36944,0.83139 7.595919,1.08727 0.120053,0.025 -0.147012,-0.15299 -0.593245,-0.39532 -4.243505,-2.30444 -9.976589,-6.87978 -12.637989,-10.08569 -1.461229,-1.760186 -4.154455,-5.886645 -4.5899,-7.032647 -0.116295,-0.306061 -0.339515,-1.550363 -0.339515,-1.892391 0,-0.07904 0.316934,2.59e-4 0.593763,0.148828 0.177587,0.09531 0.656871,0.327705 1.065051,0.516248 0.724437,0.334626 0.781,0.38397 2.376082,2.074809 2.850416,3.021532 11.40952,11.564373 12.816272,12.791983 2.875843,2.50963 5.971961,4.82595 6.80992,5.09426 1.495727,0.47892 3.638225,1.4722 3.71812,1.72393 0.119944,0.37791 -0.04605,0.74447 -0.501262,1.10691 -0.656299,0.52255 -0.914823,0.56719 -2.605525,0.45217 -1.823473,-0.12404 -3.060211,-0.30897 -6.810437,-1.01855 -1.656731,-0.31346 -3.228178,-0.6092 -3.492294,-0.65732 -0.264116,-0.0481 -0.57344,-0.10728 -0.687296,-0.13177 -0.20149,-0.0434 -0.205155,-0.03378 -0.144694,0.37413 0.107265,0.7236 0.537465,2.28424 1.054716,3.82458 0.473324,1.40953 1.952219,5.19942 2.263944,5.80223 0.166512,0.322 0.121206,0.43269 -0.10542,0.25889 -1.568865,-1.2031 -2.554794,-2.30994 -3.700032,-4.15323 -1.612769,-2.59579 -2.493669,-4.3969 -2.901115,-5.93297 l -0.206189,-0.77722 -1.083138,-0.14934 c -2.864076,-0.39511 -7.091421,-0.81284 -10.010242,-0.98909 l -0.982369,-0.05942 v 0.64492 c 0,2.15497 1.095607,6.35389 2.965194,11.36416 0.430009,1.15237 0.518168,1.55179 0.28112,1.27434 -0.167568,-0.19613 -2.043406,-3.11605 -2.441195,-3.79977 -1.627414,-2.79721 -3.161802,-6.77809 -3.553788,-9.22114 -0.04632,-0.28869 -0.0862,-0.33064 -0.364836,-0.38292 -0.452783,-0.0849 -10.13687,0.0273 -11.685591,0.13539 -2.340825,0.16338 -6.454011,0.62284 -6.564458,0.73329 -0.139355,0.13935 0.734805,2.98202 1.588534,5.16454 0.841785,2.15198 2.525895,5.86148 4.178556,9.20409 0.262673,0.53127 0.446034,0.98525 0.40721,1.00924 -0.03882,0.024 -0.483302,-0.53551 -0.987536,-1.24333 -2.952322,-4.14434 -4.985735,-7.86352 -6.509164,-11.90625 -0.760478,-2.01809 -0.79445,-2.26204 -0.37207,-2.64429 0.10049,-0.0909 0.182418,-0.20011 0.182418,-0.24236 0,-0.25523 -1.875474,-3.31326 -4.193543,-6.83731 -2.438668,-3.70737 -3.500781,-5.476717 -4.455545,-7.421766 -0.852168,-1.736042 -1.251709,-2.824717 -1.398882,-3.814237 -0.08152,-0.548101 -0.07294,-0.773578 0.05219,-1.388546 0.211448,-1.039199 0.352694,-1.337755 0.840259,-1.776119 0.728926,-0.655366 2.171709,-1.034118 4.491201,-1.179256 2.84843,-0.17823 11.763062,-0.376224 14.661643,-0.325557 z m -11.294918,5.947441 c 0.199948,-0.04861 0.264186,-0.006 0.489892,0.323494 0.292589,0.427126 0.415431,0.741173 0.381372,0.974101 -0.01271,0.0869 0.01557,0.204836 0.06253,0.262 0.200023,0.243524 0.273583,1.29382 0.104903,1.497066 -0.05627,0.0678 -0.290004,0.112655 -0.586011,0.112655 -0.414286,0 -0.626598,-0.06688 -1.336352,-0.422197 -0.661115,-0.330966 -0.878259,-0.486599 -1.00304,-0.718302 -0.222234,-0.412665 -0.141407,-0.616199 0.523482,-1.322917 0.451767,-0.480187 0.631245,-0.61244 0.852662,-0.628902 0.154228,-0.01147 0.383948,-0.04622 0.510563,-0.077 z m 14.495239,0.05529 c 0.116522,0.01204 0.197697,0.07772 0.243396,0.197921 0.06475,0.170315 0.07303,0.572426 0.01757,0.864546 -0.02711,0.1428 -0.421103,0.05122 -0.689364,-0.160197 -0.369312,-0.291062 -0.379185,-0.593458 -0.02584,-0.77618 0.186115,-0.09624 0.337714,-0.138131 0.454236,-0.12609 z m -9.870199,0.04134 c 0.464935,-0.0473 0.712889,0.359722 0.640788,1.138948 -0.02542,0.27471 -0.06658,0.532816 -0.09147,0.573092 -0.05324,0.08615 -0.363402,0.08641 -0.580326,5.17e-4 -0.08391,-0.03322 -0.331745,-0.234108 -0.550354,-0.445968 -0.515082,-0.499178 -0.504284,-0.732814 0.04806,-1.064534 0.199415,-0.119763 0.378322,-0.186288 0.5333,-0.202055 z m 5.552116,0.03876 c 0.258287,0 0.314416,0.04088 0.428398,0.313676 0.122311,0.292733 0.110064,1.151626 -0.01912,1.360641 -0.06231,0.100825 -0.393966,0.08465 -0.601514,-0.02946 -0.353761,-0.194484 -0.829407,-0.721973 -0.829407,-0.91984 0,-0.278826 0.628723,-0.725021 1.021643,-0.725021 z m 15.487944,1.244885 c 0.225177,-0.03793 0.457599,-0.02942 0.576192,0.04599 0.189369,0.12041 0.289388,0.546475 0.289388,1.233516 0,0.547185 -0.03106,0.707322 -0.15968,0.823722 -0.192223,0.173959 -0.235652,0.17435 -0.622184,0.0067 -0.165976,-0.072 -0.49017,-0.321341 -0.72037,-0.553971 -0.508711,-0.514082 -0.565415,-0.86986 -0.178284,-1.116211 0.132059,-0.08404 0.259694,-0.177287 0.283704,-0.207223 0.08846,-0.110283 0.306056,-0.194614 0.531234,-0.232544 z m -4.210596,0.726571 c 0.07855,0.03393 0.246711,0.0539 0.373621,0.04393 0.359361,-0.02823 0.525016,0.503644 0.492993,1.583883 -0.02118,0.714428 -0.05251,0.875662 -0.199471,1.016992 -0.160522,0.154371 -0.206587,0.158071 -0.568958,0.04909 -0.409185,-0.123056 -1.239414,-0.76429 -1.504301,-1.162203 -0.27116,-0.407341 -0.202489,-0.666746 0.261483,-0.988054 0.650583,-0.450535 0.988414,-0.611124 1.144633,-0.543636 z m -4.550626,1.454692 c 0.378418,0.02069 0.428879,0.0498 0.567923,0.328145 0.105533,0.211255 0.15287,0.512837 0.152963,0.976685 2.15e-4,1.059005 -0.198255,1.358785 -0.769462,1.162205 -0.382254,-0.13155 -1.117703,-0.71619 -1.330668,-1.057819 -0.305211,-0.489597 -0.237401,-0.673255 0.396875,-1.073836 0.486725,-0.307395 0.625582,-0.354883 0.982369,-0.33538 z m -4.558895,0.796334 c 0.218169,0.01817 0.420555,0.05675 0.449585,0.08578 0.237787,0.237788 0.318302,1.860699 0.111621,2.246889 -0.104991,0.19618 -0.439574,0.21548 -0.82579,0.04703 -0.144063,-0.0628 -0.487656,-0.32843 -0.763777,-0.58963 -0.431425,-0.40812 -0.501779,-0.51931 -0.501779,-0.79117 0,-0.294344 0.03901,-0.341308 0.566374,-0.674373 0.491264,-0.310261 0.619956,-0.353169 0.963766,-0.324528 z m -5.543331,0.561722 c 0.334106,0.05704 0.384743,0.0989 0.490409,0.404109 0.165555,0.47819 0.09918,1.66315 -0.105937,1.88981 -0.176265,0.19477 -0.148533,0.19351 -0.612365,0.02894 -0.195645,-0.0694 -0.579066,-0.33912 -0.851628,-0.59893 -0.414529,-0.39514 -0.495577,-0.5214 -0.495577,-0.77205 0,-0.24958 0.05493,-0.33593 0.327629,-0.51625 0.657271,-0.43461 0.853271,-0.502923 1.247469,-0.435629 z m -4.841565,1.455729 c 0.08154,0.0148 0.132244,0.05038 0.180867,0.11213 0.272125,0.3455 0.46647,0.86668 0.566374,1.51929 0.09518,0.62178 0.09073,0.70612 -0.04289,0.83974 -0.135232,0.13523 -0.590267,0.19856 -0.864547,0.11989 -0.340344,-0.0976 -1.191197,-0.54896 -1.397331,-0.74104 -0.382445,-0.35637 -0.324937,-0.63111 0.262,-1.25263 0.44835,-0.47477 0.547869,-0.53729 0.929142,-0.58498 0.172489,-0.02155 0.284845,-0.0272 0.366385,-0.0124 z m 25.440824,1.78697 c 0.160802,-0.03945 0.393148,0.10391 0.599447,0.39119 0.152204,0.21194 0.276469,0.44548 0.276469,0.51883 0,0.0734 0.03931,0.15739 0.08733,0.18707 0.04802,0.0297 0.08733,0.18129 0.08733,0.33693 0,0.15564 0.0378,0.32046 0.08372,0.36638 0.04592,0.0459 0.109484,0.39892 0.141593,0.78394 0.05085,0.60969 0.03858,0.71664 -0.09715,0.82889 -0.158985,0.13148 -0.827354,0.17387 -1.195793,0.07596 -0.422144,-0.11216 -1.686616,-0.80932 -1.918746,-1.05782 -0.425992,-0.45603 -0.352817,-0.70041 0.47594,-1.57974 0.673207,-0.71429 0.738431,-0.7606 0.993738,-0.70901 0.163146,0.033 0.297322,0.01658 0.332796,-0.04082 0.03409,-0.05516 0.07973,-0.08865 0.133326,-0.1018 z m -5.638932,1.09657 c 0.09176,-0.0393 0.224715,-0.03271 0.30024,0.01499 0.166446,0.10499 0.594025,0.89695 0.58136,1.07693 -0.0051,0.072 0.02076,0.17211 0.05736,0.22221 0.03661,0.0501 0.09289,0.34468 0.12454,0.65474 0.07458,0.73057 -0.04393,0.85434 -0.747758,0.7829 -0.693853,-0.0704 -1.726672,-0.63173 -1.892391,-1.02836 -0.06783,-0.16232 -0.101192,-0.36512 -0.0739,-0.45113 0.08909,-0.28068 1.114908,-1.23725 1.307413,-1.21905 0.09822,0.009 0.252568,-0.01453 0.343132,-0.05323 z m 11.776542,0.22324 c 0.165072,-0.0027 0.292389,0.02289 0.392741,0.07648 0.08339,0.0445 0.220337,0.10215 0.304374,0.12816 0.118758,0.0367 0.152962,0.14442 0.152962,0.48266 0,0.23936 -0.04496,0.54523 -0.09973,0.67955 -0.522609,1.28164 -0.667925,1.38437 -1.237651,0.87694 -0.351522,-0.31309 -0.845426,-1.1926 -0.845426,-1.50533 0,-0.30279 0.260304,-0.53756 0.715202,-0.64544 0.249615,-0.05919 0.452461,-0.09037 0.617533,-0.09302 z m -17.203601,1.13327 c 0.301439,-0.004 0.516318,0.37789 0.534851,0.94878 0.01299,0.40026 0.01171,0.40211 -0.292489,0.42219 -0.173613,0.0115 -0.445968,-0.05478 -0.630452,-0.15348 -0.477692,-0.25548 -0.570429,-0.48094 -0.315743,-0.76739 0.326683,-0.36742 0.451151,-0.44715 0.703833,-0.4501 z m -4.844149,0.78341 c 0.285446,0 0.38042,0.04392 0.505396,0.23461 0.297102,0.45344 0.481259,1.51419 0.300757,1.73168 -0.161379,0.19446 -0.686248,0.14827 -1.176673,-0.10335 -0.966086,-0.49567 -1.050515,-0.79434 -0.40566,-1.43919 0.366854,-0.36686 0.471963,-0.42375 0.77618,-0.42375 z m -6.838342,0.56534 c 0.219731,-0.0939 0.637286,0.38816 0.716235,0.82734 0.03061,0.1703 0.08425,0.34886 0.119373,0.39688 0.129685,0.1773 0.174218,0.92062 0.06563,1.0945 -0.170641,0.27324 -0.776338,0.21684 -1.474329,-0.13746 -0.589864,-0.2994 -0.948262,-0.64306 -0.948262,-0.91002 0,-0.24343 0.954396,-1.23799 1.168404,-1.21749 0.101665,0.01 0.260584,-0.01425 0.352949,-0.05375 z m 49.621777,1.71773 c 0.07857,0.02643 0.16444,0.10335 0.244947,0.22686 0.322505,0.49478 3.205647,3.33771 5.058608,4.98781 3.337242,2.97188 4.357946,3.93674 4.543396,4.29534 0.064,0.12383 0.12904,0.37941 0.14417,0.56793 l 0.0274,0.34261 -0.746207,0.0248 -0.746727,0.02533 -1.144634,-0.56483 c -0.629447,-0.31047 -1.313014,-0.67077 -1.519281,-0.80098 -0.28981,-0.18295 -0.38423,-0.20907 -0.415477,-0.11524 -0.0222,0.0668 -0.22492,0.29917 -0.45011,0.51625 -0.225177,0.21707 -0.474187,0.52007 -0.553447,0.67334 -0.268545,0.5193 -0.49505,1.7029 -0.55139,2.88251 -0.03039,0.63628 -0.0836,1.15704 -0.118339,1.15704 -0.03474,0 -0.102641,-0.049 -0.150896,-0.10904 v -5.2e-4 c -0.146125,-0.18177 -0.870586,-2.06796 -1.098124,-2.85925 -0.302378,-1.05156 -0.493137,-2.26636 -0.506429,-3.2241 l -0.01137,-0.82372 0.366903,-0.33228 c 0.237842,-0.21529 0.34307,-0.37074 0.299207,-0.44235 -0.03722,-0.0608 -0.237902,-0.33466 -0.445968,-0.60875 -0.611925,-0.8061 -1.307519,-2.04977 -1.673283,-2.99051 -0.395612,-1.01752 -0.833414,-2.61883 -0.751892,-2.75074 0.04933,-0.07982 0.12039,-0.10395 0.198953,-0.07751 z m 38.344489,3.10575 -0.21084,0.19844 c -0.29757,0.27955 -0.96732,1.29702 -1.24798,1.89601 -0.33966,0.72487 -0.3346,1.69691 0.0145,2.73213 0.93309,2.76744 2.89344,4.9209 5.75469,6.32106 1.59852,0.78225 1.93752,0.87659 4.0783,1.13533 0.49175,0.05939 2.78948,-0.02948 3.36879,-0.13022 0.472,-0.08226 0.60939,-0.15859 1.22783,-0.68523 0.38275,-0.32594 0.91992,-0.88986 1.19372,-1.25367 0.46028,-0.61157 1.10743,-1.80032 1.10743,-2.03399 0,-0.1259 -0.35326,-0.18356 -1.834,-0.30127 -1.01342,-0.0806 -1.25388,-0.13012 -1.71669,-0.35243 -0.29606,-0.14221 -0.61696,-0.34616 -0.71313,-0.45321 -1.21122,-1.34806 -1.46978,-1.77861 -1.37408,-2.28875 0.0678,-0.36136 0.74676,-1.26344 1.40043,-1.86086 0.35819,-0.32736 0.85464,-0.63112 1.73633,-1.06247 0.35355,-0.17297 0.50268,-0.22508 0.77928,-0.34778 l -1.0759,-1.46968 c -1.99977,0.9348 -4.60279,1.46905 -6.73137,1.34359 -1.67583,-0.0988 -3.13798,-0.41807 -4.90255,-1.07074 z m -6.88176,2.63912 c 0.0956,-0.04165 0.14352,-0.03257 0.17364,0.01498 0.0984,0.15531 0.0981,0.22961 -0.001,0.29094 -0.0441,0.0272 -0.30245,0.47119 -0.57464,0.98702 -0.62255,1.17981 -1.22733,1.98131 -2.00816,2.66185 -2.09876,1.82921 -5.05628,3.01427 -8.425358,3.37602 -1.231984,0.13229 -3.260462,0.18038 -4.103629,0.09716 -0.986114,-0.0974 -1.650261,-0.35436 -2.045358,-0.79169 -0.373797,-0.41375 -0.388837,-0.62749 -0.0775,-1.08882 0.28014,-0.41513 0.38575,-0.5062 0.902267,-0.77773 0.877344,-0.46123 1.723218,-0.63782 3.796146,-0.79168 2.784925,-0.2067 4.594412,-0.51964 6.407892,-1.10794 1.97201,-0.63973 4.32357,-1.74295 5.49789,-2.57969 0.21926,-0.15624 0.36228,-0.24878 0.45785,-0.29042 z m -1.66812,9.50123 c 0,-0.1188 1.00922,1.2571 1.49346,2.03605 1.58016,2.54186 2.97147,6.349309 3.47886,9.520389 0.53208,3.32542 0.41156,6.17797 -0.33899,8.02228 -0.44137,1.08458 -0.84371,1.30265 -1.43919,0.7798 -0.42673,-0.37467 -0.83665,-1.22698 -0.83665,-1.73943 0,-0.22389 0.096,-0.97399 0.21342,-1.66709 0.50725,-2.99431 0.49391,-5.56054 -0.046,-8.79796 -0.38378,-2.30116 -1.05245,-4.586119 -1.99472,-6.816659 -0.29155,-0.69016 -0.5302,-1.29206 -0.5302,-1.33738 z m 16.13495,7.297229 0.0517,0.31265 c 0.009,0.0548 0.009,0.0912 0.0165,0.14831 0.15877,-0.10806 0.31933,-0.21854 0.4992,-0.34107 z m -16.95247,17.45847 c 0.0618,0.0618 -2.9526,2.34142 -4.94495,3.73984 -6.026743,4.23014 -11.033936,6.64203 -20.998215,10.11366 -9.953712,3.46793 -15.017623,4.7378 -20.954794,5.25552 -2.281814,0.19897 -8.138353,0.12092 -10.914062,-0.14573 l -0.436666,-0.0419 0.65474,0.61701 c 0.975775,0.91954 1.90084,1.6968 4.377511,3.67833 l 2.238623,1.79111 1.60352,-0.63046 c 0.881797,-0.34664 2.447951,-0.95488 3.480407,-1.35185 2.893496,-1.11252 7.27762,-3.01918 11.350212,-4.93562 0.888392,-0.41806 2.283191,-1.07417 3.099552,-1.45833 2.220495,-1.0449 5.701498,-2.6015 6.985101,-3.12333 1.713841,-0.69674 4.873386,-1.83656 4.928386,-1.7782 0.0597,0.0633 0.161157,0.002 -2.011251,1.20406 -0.988584,0.54697 -3.576129,2.04099 -5.750034,3.32023 -10.531892,6.19756 -15.100381,8.58394 -19.715076,10.2981 -1.442953,0.536 -2.427588,0.81023 -3.471106,0.96687 -1.097308,0.16472 -1.268428,0.16466 -1.508435,-0.004 -0.106727,-0.0747 -0.196536,-0.18299 -0.199988,-0.24029 -0.0035,-0.0573 -0.350493,-0.27246 -0.771012,-0.47853 -1.495052,-0.73264 -4.046093,-2.87383 -5.516459,-4.62969 -0.862681,-1.03018 -2.065845,-2.81065 -2.694926,-3.9889 -0.303309,-0.56809 -0.559464,-0.93439 -0.733289,-1.04801 -0.461014,-0.30134 -1.424966,-1.67877 -2.014864,-2.87943 -1.165408,-2.37203 -1.704201,-4.68063 -1.310514,-5.61416 l 0.136942,-0.32453 0.182418,0.21808 c 0.100282,0.12005 0.42712,0.73111 0.726571,1.35807 1.021069,2.13777 2.021331,3.65932 3.482991,5.29789 0.594442,0.66639 0.814683,0.85555 1.035079,0.88884 4.331309,0.65409 6.332847,0.79161 9.629387,0.66301 1.148672,-0.0448 2.702659,-0.14761 3.453536,-0.22893 l 1.365291,-0.14779 -0.285771,-0.40153 c -1.076688,-1.51117 -2.041559,-4.45782 -1.936832,-5.91595 0.04404,-0.61319 0.288303,-1.34124 0.491959,-1.4671 0.177725,-0.10984 0.415102,0.20324 0.747241,0.98599 0.440153,1.03729 1.203485,2.46742 1.709457,3.2024 0.23141,0.33615 0.781435,1.00375 1.222664,1.48364 0.441231,0.4799 0.895361,1.02007 1.009241,1.20046 0.11388,0.1804 0.257803,0.32814 0.319877,0.32814 0.180434,0 2.411402,-0.49734 4.119645,-0.91829 1.836614,-0.45261 3.583394,-0.94533 6.389791,-1.80301 l 2.023649,-0.61857 -0.514697,-0.38757 c -1.629529,-1.22495 -3.2398,-4.0673 -3.263367,-5.76041 -0.0075,-0.53712 0.104071,-0.80429 0.288355,-0.6904 0.05109,0.0316 0.613637,0.63535 1.250053,1.34153 1.646394,1.82686 2.06917,2.21433 3.313492,3.03653 0.647386,0.42777 1.237812,0.89253 1.425753,1.12189 l 0.320911,0.39119 1.717208,-0.59582 c 2.216785,-0.76904 5.616597,-2.00178 5.750557,-2.08516 0.0756,-0.0471 0.0341,-0.20727 -0.15245,-0.58653 -0.470367,-0.95658 -0.763894,-2.67394 -0.551387,-3.22773 0.0717,-0.18699 0.24536,0.0623 0.790137,1.1343 0.449877,0.8853 1.241971,2.13891 1.351341,2.13891 0.27497,0 9.284879,-3.76896 9.482616,-3.9667 0.015,-0.015 -0.0911,-0.21896 -0.235637,-0.45322 -0.557487,-0.9031 -0.656637,-2.07593 -0.23409,-2.77606 l 0.2005,-0.33178 0.311607,0.27389 c 0.434047,0.38111 0.835467,1.03668 1.156004,1.88879 l 0.27285,0.72502 1.784917,-0.89658 c 1.76516,-0.88679 3.78842,-2.01331 4.51912,-2.51563 0.20748,-0.14263 0.39694,-0.23973 0.42066,-0.21601 z m -40.276141,18.66874 c 0.09858,0.0199 0.181837,0.0707 0.228927,0.15864 0.09952,0.18595 0.120285,0.69869 0.03721,0.91519 -0.08255,0.21512 -0.348053,0.1637 -0.685746,-0.1328 -0.188146,-0.16519 -0.309025,-0.35037 -0.309025,-0.47491 0,-0.3093 0.432894,-0.52586 0.728637,-0.46612 z m -4.017842,1.31723 c 0.268361,-0.0691 0.580649,0.16742 0.608748,0.56121 0.01494,0.20939 -0.01821,0.25376 -0.200504,0.27078 -0.120053,0.0112 -0.346227,-0.036 -0.502295,-0.1049 -0.315677,-0.1394 -0.348973,-0.26364 -0.147795,-0.55087 0.06756,-0.0965 0.152392,-0.15318 0.241846,-0.17622 z m -3.731039,0.60771 c 0.172867,0.0334 0.553334,0.71761 0.557072,1.00201 0.0034,0.25676 -0.325003,0.36625 -0.696081,0.23203 -0.727499,-0.26315 -0.863578,-0.46319 -0.604098,-0.88987 0.161413,-0.26543 0.452851,-0.40031 0.743107,-0.34417 z m -3.983736,0.37724 c 0.122822,-0.0141 0.231864,0.0509 0.33383,0.19431 0.09514,0.13386 0.214318,0.39267 0.264583,0.57515 0.08583,0.3116 0.07825,0.33709 -0.126607,0.41497 -0.119973,0.0456 -0.225732,0.0811 -0.234611,0.0791 -0.0089,-0.002 -0.192665,-0.0903 -0.408761,-0.19637 -0.464161,-0.22783 -0.537807,-0.46394 -0.244946,-0.78651 0.157259,-0.17322 0.29369,-0.2665 0.416512,-0.28061 z m -10.419002,5.20847 c -0.03398,0.01 0.02685,0.1081 0.203088,0.28991 0.161093,0.16621 0.329303,0.28008 0.373621,0.25269 0.04432,-0.0274 -0.05035,-0.16182 -0.210323,-0.29869 -0.203505,-0.1741 -0.332405,-0.25353 -0.366386,-0.24391 z" /></g></svg>
